<svg width="25" height="25" viewBox="0 0 25 25" fill="none" xmlns="http://www.w3.org/2000/svg">
<path d="M20.4167 21.875L13.8542 15.3125C13.3333 15.7292 12.7344 16.059 12.0573 16.3021C11.3802 16.5451 10.6597 16.6667 9.89583 16.6667C8.00347 16.6667 6.40208 16.0111 5.09167 14.7C3.78125 13.3889 3.12569 11.7875 3.125 9.89583C3.125 8.00347 3.78056 6.40208 5.09167 5.09167C6.40278 3.78125 8.00417 3.12569 9.89583 3.125C11.7882 3.125 13.3896 3.78056 14.7 5.09167C16.0104 6.40278 16.666 8.00417 16.6667 9.89583C16.6667 10.6597 16.5451 11.3802 16.3021 12.0573C16.059 12.7344 15.7292 13.3333 15.3125 13.8542L21.875 20.4167L20.4167 21.875ZM9.89583 14.5833C11.1979 14.5833 12.3049 14.1274 13.2167 13.2156C14.1285 12.3038 14.584 11.1972 14.5833 9.89583C14.5833 8.59375 14.1274 7.48681 13.2156 6.575C12.3038 5.66319 11.1972 5.20764 9.89583 5.20833C8.59375 5.20833 7.48681 5.66424 6.575 6.57604C5.66319 7.48785 5.20764 8.59444 5.20833 9.89583C5.20833 11.1979 5.66424 12.3049 6.57604 13.2167C7.48785 14.1285 8.59444 14.584 9.89583 14.5833Z" fill="black"/>
</svg>
