<svg width="25" height="25" viewBox="0 0 25 25" fill="none" xmlns="http://www.w3.org/2000/svg">
<path d="M22.1785 7.60624C22.0643 7.1764 21.8393 6.78409 21.5258 6.46861C21.2123 6.15313 20.8215 5.92555 20.3923 5.80867C18.817 5.38367 12.5 5.38367 12.5 5.38367C12.5 5.38367 6.18297 5.38367 4.60763 5.80867C4.17852 5.92555 3.78766 6.15313 3.47419 6.46861C3.16073 6.78409 2.93565 7.1764 2.82151 7.60624C2.39929 9.19165 2.39929 12.5 2.39929 12.5C2.39929 12.5 2.39929 15.8083 2.82151 17.3941C2.93565 17.8239 3.16073 18.2162 3.47419 18.5317C3.78766 18.8472 4.17852 19.0748 4.60763 19.1917C6.18297 19.6163 12.5 19.6163 12.5 19.6163C12.5 19.6163 18.817 19.6163 20.3923 19.1917C20.8215 19.0748 21.2123 18.8472 21.5258 18.5317C21.8393 18.2162 22.0643 17.8239 22.1785 17.3941C22.6007 15.8083 22.6007 12.5 22.6007 12.5C22.6007 12.5 22.6007 9.19165 22.1785 7.60624Z" fill="#EA5A47"/>
<path d="M10.4341 15.5035L15.7139 12.5L10.4341 9.49652V15.5035Z" fill="white"/>
<path d="M22.1785 7.60624C22.0643 7.1764 21.8393 6.78409 21.5258 6.46861C21.2123 6.15313 20.8215 5.92555 20.3923 5.80867C18.817 5.38367 12.5 5.38367 12.5 5.38367C12.5 5.38367 6.18297 5.38367 4.60763 5.80867C4.17852 5.92555 3.78766 6.15313 3.47419 6.46861C3.16073 6.78409 2.93565 7.1764 2.82151 7.60624C2.39929 9.19165 2.39929 12.5 2.39929 12.5C2.39929 12.5 2.39929 15.8083 2.82151 17.3941C2.93565 17.8239 3.16073 18.2162 3.47419 18.5317C3.78766 18.8472 4.17852 19.0748 4.60763 19.1917C6.18297 19.6163 12.5 19.6163 12.5 19.6163C12.5 19.6163 18.817 19.6163 20.3923 19.1917C20.8215 19.0748 21.2123 18.8472 21.5258 18.5317C21.8393 18.2162 22.0643 17.8239 22.1785 17.3941C22.6007 15.8083 22.6007 12.5 22.6007 12.5C22.6007 12.5 22.6007 9.19165 22.1785 7.60624Z" stroke="black" stroke-width="0.555556" stroke-miterlimit="10"/>
<path d="M10.434 15.5035L15.7138 12.5L10.434 9.49652V15.5035Z" stroke="black" stroke-width="0.555556" stroke-miterlimit="10" stroke-linecap="round" stroke-linejoin="round"/>
</svg>
