<svg width="12" height="12" viewBox="0 0 12 12" fill="none" xmlns="http://www.w3.org/2000/svg">
<path d="M10.6987 5.42625L6.19875 0.926247C6.14601 0.873578 6.07453 0.843994 6 0.843994C5.92547 0.843994 5.85398 0.873578 5.80125 0.926247L1.30125 5.42625C1.26196 5.46558 1.23522 5.51567 1.22438 5.5702C1.21355 5.62472 1.21912 5.68123 1.24039 5.7326C1.26166 5.78396 1.29767 5.82786 1.34387 5.85877C1.39008 5.88968 1.44441 5.9062 1.5 5.90625H3.46875V9.75C3.46875 9.92405 3.53789 10.091 3.66096 10.214C3.78403 10.3371 3.95095 10.4063 4.125 10.4063H7.875C8.04905 10.4063 8.21596 10.3371 8.33904 10.214C8.46211 10.091 8.53125 9.92405 8.53125 9.75V5.90625H10.5C10.5556 5.9062 10.6099 5.88968 10.6561 5.85877C10.7023 5.82786 10.7383 5.78396 10.7596 5.7326C10.7809 5.68123 10.7864 5.62472 10.7756 5.5702C10.7648 5.51567 10.738 5.46558 10.6987 5.42625ZM8.25 5.34375C8.1754 5.34375 8.10387 5.37338 8.05112 5.42613C7.99838 5.47887 7.96875 5.55041 7.96875 5.625V9.75C7.96875 9.77487 7.95887 9.79871 7.94129 9.81629C7.92371 9.83387 7.89986 9.84375 7.875 9.84375H4.125C4.10013 9.84375 4.07629 9.83387 4.05871 9.81629C4.04112 9.79871 4.03125 9.77487 4.03125 9.75V5.625C4.03125 5.55041 4.00162 5.47887 3.94887 5.42613C3.89613 5.37338 3.82459 5.34375 3.75 5.34375H2.17922L6 1.52297L9.82078 5.34375H8.25Z" fill="black"/>
</svg>
