<svg width="25" height="25" viewBox="0 0 25 25" fill="none" xmlns="http://www.w3.org/2000/svg">
<path d="M12.5 7.29169V13.5417" stroke="black" stroke-width="1.25" stroke-linecap="round"/>
<path d="M12.5 17.7083C13.0753 17.7083 13.5417 17.242 13.5417 16.6667C13.5417 16.0914 13.0753 15.625 12.5 15.625C11.9247 15.625 11.4584 16.0914 11.4584 16.6667C11.4584 17.242 11.9247 17.7083 12.5 17.7083Z" fill="black"/>
<path d="M9.6 3.12501C10.8292 2.43022 11.6354 2.08334 12.5 2.08334C13.6604 2.08334 14.7167 2.70834 16.8302 3.96043L17.5448 4.38334C19.6583 5.63543 20.7146 6.26147 21.2948 7.29168C21.875 8.32293 21.875 9.57293 21.875 12.0771V12.9229C21.875 15.4261 21.875 16.6781 21.2948 17.7083C20.7146 18.7396 19.6583 19.3646 17.5448 20.6156L16.8302 21.0396C14.7167 22.2906 13.6604 22.9167 12.5 22.9167C11.3396 22.9167 10.2833 22.2917 8.16979 21.0396L7.45521 20.6156C5.34167 19.3656 4.28542 18.7386 3.70521 17.7083C3.125 16.6771 3.125 15.4271 3.125 12.9229V12.0771C3.125 9.57293 3.125 8.32189 3.70521 7.29168C4.1625 6.47918 4.91562 5.91876 6.25 5.10418" stroke="black" stroke-width="1.25" stroke-linecap="round"/>
</svg>
