<svg width="149" height="120" viewBox="0 0 149 120" fill="none" xmlns="http://www.w3.org/2000/svg">
<g clip-path="url(#clip0_66_2)">
<g clip-path="url(#clip1_66_2)">
<path d="M12.0812 119.91C12.9058 119.91 13.6738 119.455 14.0632 118.712C15.4784 116.016 17.1313 113.048 18.5082 110.746C19.4187 114.686 21.1594 118.105 21.2636 118.31C21.6622 119.085 22.4576 119.561 23.3517 119.522C24.2239 119.486 24.9955 118.945 25.3283 118.137C25.352 118.076 27.3907 113.13 29.786 108.304C30.4589 111.657 32.1301 116.915 32.2014 117.138C32.4757 118.003 33.2454 118.616 34.1505 118.69C35.0465 118.762 35.9131 118.288 36.3282 117.48L42.6034 105.252C45.5253 113.074 46.9002 113.136 48.0394 113.189C48.8987 113.242 50.0031 112.811 50.5553 111.522C51.9065 108.369 55.0515 103.415 57.9038 99.3703C57.1322 103.065 56.6276 106.307 56.5928 106.541C56.4429 107.506 56.9366 108.455 57.8124 108.891C58.6864 109.322 59.7414 109.143 60.4198 108.437C60.5057 108.349 68.4613 100.124 73.9375 96.3261L68.3132 101.246C67.3825 102.06 67.2874 103.475 68.1029 104.407C68.9166 105.338 70.3336 105.431 71.2643 104.618L76.479 100.054L74.3598 102.201C73.4913 103.08 73.5005 104.499 74.3818 105.367C75.2631 106.236 76.6801 106.227 77.5486 105.345L79.048 103.824C78.8889 104.607 79.154 105.451 79.8104 105.996C80.7631 106.784 82.1746 106.654 82.9645 105.704L83.226 105.389L83.1309 105.557C82.522 106.634 82.9023 108 83.9775 108.609C85.0526 109.214 86.4203 108.839 87.0291 107.762L87.1132 107.611C86.8829 108.583 87.3272 109.627 88.2542 110.112C89.1062 110.558 90.1101 110.403 90.7866 109.799C90.772 110.664 91.262 111.498 92.0994 111.878C93.2257 112.39 94.5532 111.891 95.0651 110.766L95.9721 108.774L95.248 110.83C94.8384 111.997 95.4509 113.275 96.6175 113.686C97.7895 114.09 99.064 113.483 99.4754 112.315L103.105 101.996C103.514 100.828 102.902 99.5495 101.733 99.1381C100.571 98.7249 99.2889 99.3411 98.8775 100.509L97.4037 104.7C97.2849 103.989 96.8259 103.351 96.1202 103.029C95.6064 102.795 95.0487 102.775 94.5459 102.923L95.4052 101.283C95.9775 100.186 95.5552 98.8328 94.4599 98.2605C93.361 97.6864 92.0098 98.1088 91.4375 99.2058L89.7023 102.521C89.7297 101.714 89.3183 100.919 88.565 100.495C88.2359 100.308 87.8812 100.215 87.5301 100.206L88.1536 99.4544C88.9435 98.5019 88.8137 97.0904 87.8611 96.3005C86.9085 95.5089 85.4969 95.6405 84.707 96.5931L81.6828 100.233C81.6828 99.6556 81.4597 99.076 81.0154 98.6353C80.3772 98.0064 79.4575 97.8382 78.6713 98.1271L79.975 96.9843C80.9057 96.1707 81.0008 94.7556 80.1853 93.8231C79.3716 92.8907 77.9564 92.7974 77.0239 93.6129L75.9323 94.5673C76.2102 93.92 76.1828 93.154 75.786 92.5067C75.1406 91.4518 73.7601 91.1208 72.7051 91.7681C69.551 93.7006 65.4663 97.3043 62.2756 100.312C62.8351 97.6206 63.5336 94.7117 64.2705 92.7225C65.2889 89.9726 64.0108 88.9908 63.1588 88.6507C61.5662 88.0145 60.3631 88.0803 54.2085 96.807C52.1808 99.683 49.7508 103.402 47.9973 106.601C47.0941 104.51 45.9897 101.515 45.1321 98.8657C44.8524 98.0046 44.0826 97.3957 43.1812 97.3226C42.2779 97.2659 41.4222 97.7285 41.009 98.533L34.902 110.434C34.6131 109.355 34.3462 108.278 34.1688 107.379C33.2363 102.689 32.6073 100.61 30.5009 100.412C28.5683 100.25 27.8021 102.104 27.4803 102.903C27.4054 103.086 27.3359 103.274 27.2554 103.422C25.8219 106.086 24.4268 109.04 23.3334 111.459C22.7538 109.58 22.3241 107.516 22.4576 105.823C22.635 103.57 21.1503 102.961 20.6895 102.828C19.2706 102.42 18.1809 102.104 13.3135 110.686C13.0685 106.985 13.3446 103.181 14.7964 101.29C15.632 100.204 15.3742 99.054 14.9006 98.3995C13.7524 96.8198 12.1415 97.3847 8.92893 98.5147C9.03498 96.6114 9.26719 93.973 9.88886 90.8374C11.0353 85.0653 14.9537 79.1854 14.9939 79.1269C15.5735 78.2657 15.4839 77.1193 14.78 76.3569C14.076 75.5945 12.9405 75.4171 12.0373 75.9254L8.35116 78.0024C8.29995 75.9839 8.30909 73.2761 8.53034 70.3398C8.97465 64.4416 12.8948 58.9218 12.9351 58.8669C13.4799 58.1063 13.4964 57.0879 12.9735 56.3109C12.4505 55.5357 11.4961 55.1645 10.591 55.3839L8.32555 55.9288C9.38239 52.6414 11.3736 47.4416 14.7178 41.9986C15.9666 39.9673 20.8888 34.7053 22.6825 32.8514C23.1689 32.3486 23.3901 31.6483 23.2859 30.9572C23.1817 30.2661 22.7575 29.6627 22.1431 29.33C15.0689 25.4703 7.18644 20.9726 5.86263 19.9158C5.7255 19.7256 5.56277 19.5337 5.38906 19.3362C5.34884 19.2923 5.30131 19.2375 5.25742 19.1845C5.44941 18.8864 5.97782 18.2465 7.37293 17.1989C11.6917 13.9609 29.0583 10.5546 35.946 11.0739C38.025 11.2275 45.0389 13.1326 49.2461 14.3777C49.791 14.5404 50.3798 14.4874 50.8881 14.2296C51.0124 14.1675 63.4495 7.90537 68.5765 5.95635C70.7925 5.11531 79.9988 5.00195 84.5626 5.55594C87.2321 5.87956 89.4957 5.52852 91.8946 5.15736C93.7889 4.863 95.9337 4.53024 98.6471 4.47539C100.834 4.47173 104.377 6.45184 106.125 7.74996C106.25 7.84504 106.385 7.93097 106.531 8.00044L120.053 14.4966L117.901 16.9301C114.297 16.6248 110.291 16.3651 106.284 17.166C105.089 17.4055 104.045 17.7072 103.151 18.0783C100.927 17.464 92.0738 15.1182 88.3365 15.6667C88.2981 15.6722 88.2597 15.6777 88.2213 15.685C85.7693 16.0909 82.3556 18.018 79.3424 19.7202C77.8997 20.5356 76.1078 21.5467 75.5172 21.7131C75.5118 21.7149 75.5044 21.7167 75.4971 21.7185C74.5683 21.9343 70.7505 21.2633 68.9184 20.9433C66.9418 20.5978 65.6729 20.382 64.841 20.3711C64.6581 20.3637 64.4862 20.382 64.3107 20.4204C64.1352 20.4588 63.967 20.5155 63.8097 20.5923C62.2391 21.3127 38.8222 32.4217 37.162 54.9634C36.6189 62.339 39.8626 73.7588 46.05 79.3499C49.9629 82.8841 60.5185 83.0999 62.5956 83.1072H62.6029C63.8353 83.1072 64.8373 82.1107 64.8428 80.8766C64.8483 79.6388 63.8499 78.6332 62.6121 78.6277C58.1562 78.6094 51.0051 77.7903 49.0523 76.026C44.1064 71.5575 41.1699 61.5126 41.6288 55.2925C42.991 36.8042 61.9374 26.5326 65.2231 24.8852C65.7278 24.9438 66.4939 25.0699 67.2618 25.2015C65.5559 28.7906 62.57 35.6743 62.5408 39.9673C62.5005 46.0923 72.5844 53.8481 74.6067 55.34C75.5995 56.0732 77.0038 55.8648 77.7388 54.8683C78.4738 53.8737 78.2636 52.4714 77.2689 51.7364C73.1238 48.6739 67.0022 42.8232 67.0223 39.9965C67.0461 36.4623 70.1855 29.3812 71.8732 25.964C73.4986 26.1925 74.8133 26.2949 75.8354 26.1907C88.6107 31.1455 90.0132 30.9188 90.622 30.8256C96.1311 29.9534 100.989 26.635 102.282 25.6897C106.987 25.8835 113.671 26.5417 115.551 27.551C116.637 28.1342 119.905 31.8147 122.452 35.0454L124.649 44.3444C122.452 46.9772 115.975 48.14 110.214 49.1749C109.987 49.2151 109.762 49.2553 109.539 49.2955C109.215 49.2571 108.881 49.2919 108.552 49.4071C108.455 49.4418 108.362 49.4802 108.274 49.5241C102.417 50.5991 97.4933 51.7364 95.2279 54.7294C89.7755 61.9349 87.5064 69.7913 89.0057 76.2856L89.0843 76.5928C90.3514 82.0888 91.1157 85.4054 94.1125 88.2211C96.612 90.5723 100.059 89.2468 103.708 87.8426C105.41 87.1881 107.169 86.5097 108.934 86.1313L110.764 85.7272C125.816 82.3923 132.055 81.2569 134.591 80.926C134.486 81.9316 134.243 83.3248 133.936 84.568C133.644 85.751 134.349 86.9522 135.527 87.2703C137.584 87.8335 140.573 89.3729 140.824 90.7936C141.46 94.3863 144.442 108.77 144.567 109.381C144.819 110.591 146.015 111.362 147.214 111.119C148.426 110.867 149.204 109.682 148.953 108.472C148.922 108.322 145.858 93.5416 145.232 90.0147C144.631 86.614 141.078 84.6174 138.727 83.6502C139.727 78.4906 138.604 77.4923 138.032 76.9859C137.523 76.5343 137.134 76.1887 134.664 76.4319C133.159 73.3694 130.442 67.5662 129.811 64.9535C129.164 62.2731 129.864 58.4958 130.831 55.2139L132.927 63.6883C133.117 64.4599 133.702 65.0723 134.463 65.2972C135.223 65.5258 136.048 65.3302 136.629 64.7871C137.065 64.3812 140.923 60.7172 142.292 57.2251C143.592 53.9066 143.272 49.4509 143.058 47.5878C144.104 45.9442 146.944 40.6474 145.658 33.2518C144.857 28.637 143.003 24.5379 142.391 23.2653C142.25 22.161 141.72 19.6397 139.738 17.8406C138.368 16.5992 136.56 15.9702 134.514 15.9922C135.973 13.2003 137.278 10.6589 137.758 7.41172C137.807 7.08078 137.781 6.74254 137.681 6.42075C136.84 3.702 133.519 -1.09742 126.909 0.226309C121.236 1.36171 115.024 3.33633 113.452 3.84827L108.243 3.76234C106.621 2.6379 102.234 -0.0351462 98.5648 0.00690582C95.5515 0.065413 93.2458 0.423771 91.2126 0.740075C88.9472 1.09112 87.1571 1.37268 85.1111 1.12037C80.7557 0.586491 70.3519 0.502388 66.9912 1.77858C62.3616 3.53745 52.5465 8.40268 49.6685 9.84159C46.9332 9.04626 39.0818 6.82299 36.2806 6.61639C29.0272 6.08616 10.3167 9.40462 4.69061 13.6244C2.10885 15.5607 0.881952 17.1806 0.710077 18.8791C0.534555 20.6161 1.55299 21.7643 2.04301 22.3164C2.1125 22.3932 2.18015 22.4645 2.23318 22.5376C2.54585 23.0624 3.09437 23.9784 17.4531 31.8732C15.2974 34.1842 12.083 37.7495 10.9055 39.6638C4.93195 49.3851 3.0322 58.1758 2.95358 58.547C2.7945 59.2984 3.0322 60.0791 3.58439 60.6148C4.13659 61.1487 4.92829 61.3663 5.67065 61.1871L6.62693 60.9567C5.47135 63.4213 4.32308 66.6301 4.06893 70.0162C3.58439 76.4556 4.05247 81.7249 4.07258 81.9462C4.14207 82.7031 4.5882 83.3741 5.26107 83.727C5.93212 84.0817 6.74029 84.0689 7.40035 83.6959L7.55395 83.61C6.71468 85.559 5.94125 87.7585 5.5006 89.9781C4.57723 94.6331 4.44741 98.2368 4.37975 100.173C4.36331 100.632 4.35781 100.966 4.33405 101.155C4.23896 101.919 4.56262 102.762 5.16052 103.248C6.16067 104.066 7.12609 103.894 9.26173 103.161C7.8977 109.293 9.64204 117.102 9.90167 118.193C10.1174 119.102 10.8726 119.782 11.8014 119.899C11.8928 119.903 11.9879 119.91 12.0812 119.91ZM102.593 83.4692C102.426 83.5332 102.26 83.5972 102.097 83.6593C100.647 84.217 97.6323 85.3725 97.1788 84.9538C95.1749 83.0706 94.6336 80.7248 93.4488 75.5835L93.3793 75.2782C93.0246 73.746 92.9588 72.0749 93.1636 70.3215C94.2332 70.5117 95.7874 70.9359 97.5591 71.8775C100.775 73.587 104.14 76.8487 104.988 77.6971C104.099 80.4981 102.929 82.8256 102.593 83.4692ZM109.737 81.3648L108.321 81.6774C108.585 81.0101 108.852 80.2842 109.106 79.5163C109.318 80.1306 109.53 80.7523 109.737 81.3648ZM119.012 79.3426C117.517 79.6626 115.893 80.0136 114.138 80.3976C110.517 69.5024 109.994 69.219 108.011 69.5189C107.045 69.6688 106.061 70.4769 106.043 71.9451C106.041 72.1389 106.034 72.3345 106.023 72.5302C104.355 71.0529 102.017 69.177 99.66 67.9227C97.5244 66.7873 95.6173 66.2242 94.1747 65.9481C95.1383 63.1197 96.7034 60.2108 98.8061 57.4335C98.8793 57.3384 98.9616 57.2434 99.0548 57.1538L105.648 68.3085C106.014 68.9247 106.65 69.3306 107.363 69.3982C108.08 69.4714 108.778 69.1898 109.254 68.6541C109.545 68.325 112.11 65.3557 112.481 62.5181C112.956 58.8779 112.536 55.5631 112.092 53.391C118.091 52.3068 124.09 51.0873 127.392 47.959C127.703 48.1857 128.045 48.4216 128.41 48.6538C127.072 51.879 124.041 60.1541 125.456 66.0011C126.116 68.7364 128.383 73.7003 129.868 76.8049C123.806 66.2205 123.247 66.3833 121.515 66.8952C120.519 67.1896 119.8 68.3012 119.857 69.3379C120.1 73.7497 119.402 77.6057 119.012 79.3426ZM125.388 78.0134C124.872 78.1176 124.333 78.2273 123.772 78.3425C123.896 77.6148 124.019 76.7829 124.119 75.8706C124.538 76.5653 124.966 77.2894 125.388 78.0134ZM107.681 54.201C108.058 55.9983 108.442 58.8523 108.04 61.9386C108.001 62.2384 107.877 62.5968 107.7 62.9752L103.132 55.2505C104.507 54.8537 106.074 54.5118 107.681 54.201ZM138.743 49.8989C138.82 51.7199 138.739 54.0054 138.12 55.585C137.756 56.5157 137.043 57.5725 136.269 58.5506L134.302 50.59C135.891 50.5662 137.454 50.2554 138.743 49.8989ZM139.416 44.9605C138.419 45.3518 136.214 46.1124 134.102 46.1124C132.471 46.1124 130.268 44.6076 129.08 43.5856L126.917 34.4347C129.012 31.0669 131.762 27.3462 132.947 26.6953C133.879 26.1834 136.141 25.2089 138.026 24.4227C138.068 24.5909 138.129 24.7536 138.207 24.9072C138.229 24.9492 140.416 29.2532 141.243 34.0105C142.223 39.6528 140.206 43.6606 139.416 44.9605ZM135.618 20.574C133.854 21.3163 131.811 22.2085 130.789 22.7698C128.74 23.8961 126.099 27.4925 124.306 30.2057C122.274 27.7539 119.413 24.5379 117.676 23.6054C115.544 22.4627 111.112 21.8502 107.363 21.5247C111.02 20.8318 114.944 21.1719 118.411 21.4735C120.566 21.6619 122.602 21.8392 124.36 21.7441C125.534 21.682 126.807 21.3748 128.156 21.0494C129.233 20.7879 130.343 20.5191 131.532 20.3345C132.333 20.4753 133.32 20.521 134.384 20.4734C134.845 20.4515 135.256 20.4844 135.618 20.574ZM87.3089 20.6343L89.3787 25.8287C89.4427 25.9877 89.5213 26.1358 89.6146 26.2711C88.1884 25.9219 85.027 24.8395 81.6188 23.5853C83.3832 22.5888 85.5993 21.3419 87.3089 20.6343ZM99.1225 22.4426C98.0912 23.1465 96.0781 24.4099 93.6719 25.3533C93.734 24.9675 93.6956 24.5598 93.5402 24.1722L91.9769 20.2486C94.0997 20.5338 96.8351 21.106 99.2907 21.7076C99.2102 21.9562 99.1554 22.2049 99.1225 22.4426ZM125.326 17.102C124.876 17.1916 124.472 17.2537 124.125 17.272C123.945 17.2811 123.761 17.2866 123.571 17.2885L124.218 16.5553L125.326 17.102ZM133.232 7.30019C132.79 9.61853 131.777 11.5548 130.517 13.9627C130.393 14.1803 130.263 14.3375 130.137 14.4819L124.713 11.8034C124.68 11.787 124.649 11.7705 124.618 11.7577L116.195 7.675C118.674 6.90344 123.465 5.48098 127.787 4.61617C131.331 3.90312 132.771 6.25254 133.232 7.30019ZM108.054 116.272C109.259 116.272 110.254 115.315 110.292 114.103L110.7 101.328C110.739 100.093 109.769 99.0577 108.532 99.0175C107.354 99.0083 106.261 99.9481 106.22 101.186L106.069 105.982C105.835 105.252 105.231 104.662 104.43 104.481C103.222 104.204 102.024 104.963 101.75 106.168L100.304 112.525C100.029 113.732 100.785 114.931 101.991 115.206C103.204 115.482 104.398 114.723 104.672 113.518L106.016 107.613L105.813 113.962C105.774 115.198 106.743 116.233 107.981 116.273C108.005 116.272 108.029 116.272 108.054 116.272ZM113.255 115.694C113.269 115.694 113.286 115.694 113.3 115.694C114.536 115.668 115.518 114.646 115.494 113.408L115.35 106.256C115.326 105.02 114.392 104.025 113.064 104.062C111.828 104.087 110.846 105.11 110.87 106.347L111.015 113.5C111.04 114.721 112.039 115.694 113.255 115.694ZM118.817 114.515C118.851 114.515 118.886 114.515 118.921 114.513C120.157 114.456 121.111 113.408 121.055 112.172L120.442 98.7725C120.387 97.5365 119.362 96.5693 118.102 96.6388C116.866 96.6955 115.911 97.7431 115.968 98.9791L116.58 112.379C116.635 113.578 117.626 114.515 118.817 114.515ZM123.801 114.465C123.883 114.465 123.967 114.462 124.051 114.451C125.28 114.315 126.167 113.207 126.03 111.977L125.308 105.475C125.17 104.247 124.064 103.351 122.834 103.497C121.605 103.632 120.718 104.74 120.855 105.971L121.578 112.472C121.704 113.619 122.675 114.465 123.801 114.465ZM132.543 112.805C132.62 112.805 132.695 112.801 132.773 112.794C134.004 112.668 134.9 111.569 134.773 110.339L134.766 110.26C135.198 111.055 136.092 111.54 137.041 111.414C138.266 111.245 139.125 110.116 138.957 108.891L138.147 102.976L139.613 110.441C139.851 111.657 141.027 112.443 142.243 112.207C143.457 111.968 144.247 110.792 144.009 109.578L141.727 97.9753C141.489 96.7613 140.315 95.9751 139.098 96.2091C138.293 96.3682 137.673 96.9386 137.417 97.6608L136.949 94.2327C136.781 93.0077 135.649 92.1612 134.426 92.3166C133.201 92.4848 132.342 93.6147 132.51 94.8397L133.592 102.749C133.132 102.215 132.433 101.901 131.667 101.983C130.872 102.063 130.217 102.553 129.886 103.219L129.114 96.5053C128.974 95.2767 127.866 94.3808 126.635 94.5362C125.406 94.677 124.523 95.7886 124.666 97.0154L126.227 110.607C126.37 111.836 127.493 112.726 128.707 112.576C129.484 112.489 130.12 112.012 130.451 111.362C130.775 112.216 131.603 112.805 132.543 112.805ZM63.6543 69.0216C64.2138 69.0216 64.7733 68.8132 65.2085 68.3963C66.0989 67.5388 66.1263 66.1218 65.2706 65.2296C65.2194 65.1747 60.0139 59.7153 57.4614 53.6305C55.0661 47.9206 57.5071 39.9984 57.5327 39.9179C57.902 38.7386 57.2474 37.4807 56.0699 37.1096C54.8924 36.7384 53.6344 37.3893 53.2614 38.5668C53.1389 38.9526 50.2939 48.1181 53.3309 55.362C56.2144 62.2366 61.8094 68.0891 62.0453 68.3359C62.4823 68.7912 63.0692 69.0216 63.6543 69.0216ZM28.0691 51.1294C28.1075 51.1294 28.1459 51.1294 28.1843 51.1275C29.4203 51.0635 30.3711 50.0122 30.3089 48.7763C29.8866 40.4555 40.0253 31.3247 43.9674 28.509C44.9749 27.7905 45.2071 26.3918 44.4885 25.3862C43.7718 24.3788 42.373 24.1448 41.3656 24.8651C40.7055 25.3368 25.2039 36.5574 25.8347 49.0048C25.8951 50.2006 26.8861 51.1294 28.0691 51.1294ZM26.716 29.5091C27.4438 29.5091 28.1569 29.1581 28.5865 28.5072C29.2685 27.4778 28.9943 26.0956 27.9667 25.4118C27.59 25.1595 25.118 23.695 22.8214 22.3402C25.7086 21.1609 28.9468 19.8628 30.0164 19.5227C35.1141 17.9046 40.8902 20.3381 40.9487 20.3619C42.0841 20.8483 43.4006 20.3253 43.8906 19.1936C44.3807 18.06 43.8632 16.7454 42.7296 16.2518C42.4334 16.122 35.381 13.1162 28.6615 15.2535C26.4473 15.9574 17.3325 19.7567 16.9448 19.9195C16.1623 20.2467 15.6302 20.9872 15.5735 21.8337C15.515 22.6803 15.9428 23.4866 16.6742 23.9162C19.8265 25.7665 25.0064 28.8217 25.4855 29.138C25.864 29.3903 26.2918 29.5091 26.716 29.5091Z" fill="#00ACD2"/>
</g>
</g>
<defs>
<clipPath id="clip0_66_2">
<rect width="148.31" height="119.91" fill="white" transform="matrix(-1 0 0 1 149 0)"/>
</clipPath>
<clipPath id="clip1_66_2">
<rect width="148.31" height="119.91" fill="white" transform="matrix(-1 0 0 1 149 0)"/>
</clipPath>
</defs>
</svg>
