<svg xmlns="http://www.w3.org/2000/svg" version="1.1" xmlns:xlink="http://www.w3.org/1999/xlink" xmlns:svgjs="http://svgjs.dev/svgjs" width="1000" height="121" viewBox="0 0 1000 121"><g transform="matrix(1,0,0,1,-0.6060606060606233,-0.5437196981456083)"><svg viewBox="0 0 396 48" data-background-color="#ffffff" preserveAspectRatio="xMidYMid meet" height="121" width="1000" xmlns="http://www.w3.org/2000/svg" xmlns:xlink="http://www.w3.org/1999/xlink"><g id="tight-bounds" transform="matrix(1,0,0,1,0.2400000000000091,0.21569045876850623)"><svg viewBox="0 0 395.52 47.568619082462966" height="47.568619082462966" width="395.52"><g><svg viewBox="0 0 476.12293608967127 57.26261777728922" height="47.568619082462966" width="395.52"><g transform="matrix(1,0,0,1,80.60293608967126,7.914008679784548)"><svg viewBox="0 0 395.52 41.43460041772013" height="41.43460041772013" width="395.52"><g id="textblocktransform"><svg viewBox="0 0 395.52 41.43460041772013" height="41.43460041772013" width="395.52" id="textblock"><g><svg viewBox="0 0 395.52 41.43460041772013" height="41.43460041772013" width="395.52"><g transform="matrix(1,0,0,1,0,0)"><svg width="395.52" viewBox="0.95 -36.5 454.81 47.65" height="41.43460041772013" data-palette-color="#00acd2"><path d="M15.4 0.5L15.4 0.5Q11.9 0.5 9.22-0.6 6.55-1.7 4.7-3.63 2.85-5.55 1.9-8 0.95-10.45 0.95-13.15L0.95-13.15Q0.95-16.75 2.63-19.88 4.3-23 7.53-24.9 10.75-26.8 15.4-26.8L15.4-26.8Q20.15-26.8 23.4-24.8 26.65-22.8 28.25-19.65L28.25-19.65 19-16.85Q18.35-17.8 17.43-18.3 16.5-18.8 15.35-18.8L15.35-18.8Q14.05-18.8 13-18.13 11.95-17.45 11.33-16.2 10.7-14.95 10.7-13.15L10.7-13.15Q10.7-11.4 11.33-10.13 11.95-8.85 13-8.18 14.05-7.5 15.35-7.5L15.35-7.5Q16.15-7.5 16.8-7.73 17.45-7.95 18.03-8.4 18.6-8.85 19-9.45L19-9.45 28.25-6.65Q27.2-4.55 25.38-2.95 23.55-1.35 21.08-0.43 18.6 0.5 15.4 0.5ZM57.7-17.3L57.7 0 48.2 0 48.2-14.8Q48.2-16.75 47.32-17.63 46.45-18.5 45.15-18.5L45.15-18.5Q44.55-18.5 43.67-18.05 42.8-17.6 42-16.75 41.2-15.9 40.75-14.75L40.75-14.75 40.75 0 31.25 0 31.25-36.5 40.75-36.5 40.75-22.4Q42.15-24.55 44.42-25.68 46.7-26.8 49.45-26.8L49.45-26.8Q52.25-26.8 53.9-25.88 55.55-24.95 56.35-23.5 57.15-22.05 57.42-20.4 57.7-18.75 57.7-17.3L57.7-17.3ZM60.85-7.95L60.85-7.95Q60.85-10.6 62.3-12.63 63.75-14.65 66.32-15.8 68.9-16.95 72.2-16.95L72.2-16.95Q73.75-16.95 75.12-16.7 76.5-16.45 77.5-15.95L77.5-15.95 77.5-16.75Q77.5-18.6 76.42-19.5 75.34-20.4 72.95-20.4L72.95-20.4Q70.75-20.4 68.82-19.68 66.9-18.95 64.8-17.55L64.8-17.55 62.05-23.45Q64.7-25.15 67.62-25.98 70.55-26.8 73.9-26.8L73.9-26.8Q80.15-26.8 83.57-23.98 87-21.15 87-15.6L87-15.6 87-10.5Q87-9.15 87.4-8.63 87.8-8.1 88.8-8L88.8-8 88.8 0Q87.65 0.25 86.62 0.38 85.59 0.5 84.8 0.5L84.8 0.5Q82.25 0.5 80.92-0.43 79.59-1.35 79.2-3.15L79.2-3.15 79-4.1Q77.25-1.85 74.95-0.68 72.65 0.5 70.05 0.5L70.05 0.5Q67.45 0.5 65.34-0.6 63.25-1.7 62.05-3.63 60.85-5.55 60.85-7.95ZM76.25-7.3L76.25-7.3Q76.8-7.7 77.15-8.18 77.5-8.65 77.5-9.15L77.5-9.15 77.5-11.1Q76.7-11.4 75.67-11.6 74.65-11.8 73.84-11.8L73.84-11.8Q72.15-11.8 70.97-10.95 69.8-10.1 69.8-8.8L69.8-8.8Q69.8-8.1 70.2-7.53 70.59-6.95 71.3-6.63 72-6.3 72.9-6.3L72.9-6.3Q73.75-6.3 74.67-6.58 75.59-6.85 76.25-7.3ZM92.04-7.1L92.04-36.5 101.54-36.5 101.54-10.45Q101.54-9 102.17-8.22 102.79-7.45 103.99-7.45L103.99-7.45Q104.59-7.45 105.29-7.65 105.99-7.85 106.59-8.2L106.59-8.2 107.79-1.2Q106.09-0.4 103.97 0.05 101.84 0.5 99.94 0.5L99.94 0.5Q96.14 0.5 94.09-1.48 92.04-3.45 92.04-7.1L92.04-7.1ZM109.79-7.1L109.79-36.5 119.29-36.5 119.29-10.45Q119.29-9 119.92-8.22 120.54-7.45 121.74-7.45L121.74-7.45Q122.34-7.45 123.04-7.65 123.74-7.85 124.34-8.2L124.34-8.2 125.54-1.2Q123.84-0.4 121.72 0.05 119.59 0.5 117.69 0.5L117.69 0.5Q113.89 0.5 111.84-1.48 109.79-3.45 109.79-7.1L109.79-7.1ZM140.69 0.5L140.69 0.5Q137.24 0.5 134.54-0.58 131.84-1.65 130.01-3.5 128.19-5.35 127.24-7.75 126.29-10.15 126.29-12.8L126.29-12.8Q126.29-16.6 127.94-19.78 129.59-22.95 132.79-24.88 135.99-26.8 140.69-26.8L140.69-26.8Q145.39-26.8 148.59-24.9 151.79-23 153.44-19.9 155.09-16.8 155.09-13.15L155.09-13.15Q155.09-12.4 155.01-11.63 154.94-10.85 154.84-10.25L154.84-10.25 136.39-10.25Q136.49-8.85 137.16-7.98 137.84-7.1 138.86-6.7 139.89-6.3 140.99-6.3L140.99-6.3Q142.54-6.3 143.91-7 145.29-7.7 145.74-8.95L145.74-8.95 153.79-6.65Q152.74-4.55 150.86-2.95 148.99-1.35 146.44-0.43 143.89 0.5 140.69 0.5ZM136.19-15.95L136.19-15.95 144.89-15.95Q144.74-17.25 144.16-18.15 143.59-19.05 142.66-19.55 141.74-20.05 140.54-20.05L140.54-20.05Q139.34-20.05 138.41-19.55 137.49-19.05 136.91-18.15 136.34-17.25 136.19-15.95ZM184.64-17.3L184.64 0 175.14 0 175.14-14.8Q175.14-16.75 174.26-17.63 173.39-18.5 172.24-18.5L172.24-18.5Q171.44-18.5 170.54-18.03 169.64-17.55 168.89-16.7 168.14-15.85 167.69-14.75L167.69-14.75 167.69 0 158.19 0 158.19-26.3 166.74-26.3 166.74-22.4Q167.69-23.85 169.14-24.83 170.59-25.8 172.49-26.3 174.39-26.8 176.64-26.8L176.64-26.8Q179.34-26.8 180.94-25.85 182.54-24.9 183.34-23.4 184.14-21.9 184.39-20.28 184.64-18.65 184.64-17.3L184.64-17.3ZM199.33 0L199.33 0Q196.78 0 194.66-1 192.53-2 191.03-3.8 189.53-5.6 188.71-8 187.88-10.4 187.88-13.2L187.88-13.2Q187.88-16.15 188.78-18.63 189.68-21.1 191.31-22.95 192.93-24.8 195.18-25.8 197.43-26.8 200.13-26.8L200.13-26.8Q202.93-26.8 205.11-25.68 207.28-24.55 208.53-22.4L208.53-22.4 208.53-26.3 216.78-26.3 216.78-2.4Q216.78 1.7 214.78 4.75 212.78 7.8 209.18 9.47 205.58 11.15 200.78 11.15L200.78 11.15Q196.63 11.15 193.51 9.85 190.38 8.55 187.98 6.1L187.98 6.1 192.98 0.9Q194.43 2.25 196.46 3.18 198.48 4.1 200.78 4.1L200.78 4.1Q202.53 4.1 204.01 3.45 205.48 2.8 206.38 1.38 207.28-0.05 207.28-2.4L207.28-2.4 207.28-4.1Q206.18-2.05 204.01-1.03 201.83 0 199.33 0ZM202.73-7.5L202.73-7.5Q203.43-7.5 204.06-7.68 204.68-7.85 205.23-8.18 205.78-8.5 206.31-9.03 206.83-9.55 207.28-10.2L207.28-10.2 207.28-14.9Q206.83-16.1 206.03-16.98 205.23-17.85 204.28-18.32 203.33-18.8 202.33-18.8L202.33-18.8Q201.33-18.8 200.46-18.35 199.58-17.9 198.93-17.07 198.28-16.25 197.93-15.2 197.58-14.15 197.58-12.95L197.58-12.95Q197.58-11.75 197.96-10.75 198.33-9.75 199.03-9.03 199.73-8.3 200.68-7.9 201.63-7.5 202.73-7.5ZM234.53 0.5L234.53 0.5Q231.08 0.5 228.38-0.58 225.68-1.65 223.86-3.5 222.03-5.35 221.08-7.75 220.13-10.15 220.13-12.8L220.13-12.8Q220.13-16.6 221.78-19.78 223.43-22.95 226.63-24.88 229.83-26.8 234.53-26.8L234.53-26.8Q239.23-26.8 242.43-24.9 245.63-23 247.28-19.9 248.93-16.8 248.93-13.15L248.93-13.15Q248.93-12.4 248.86-11.63 248.78-10.85 248.68-10.25L248.68-10.25 230.23-10.25Q230.33-8.85 231.01-7.98 231.68-7.1 232.71-6.7 233.73-6.3 234.83-6.3L234.83-6.3Q236.38-6.3 237.76-7 239.13-7.7 239.58-8.95L239.58-8.95 247.63-6.65Q246.58-4.55 244.71-2.95 242.83-1.35 240.28-0.43 237.73 0.5 234.53 0.5ZM230.03-15.95L230.03-15.95 238.73-15.95Q238.58-17.25 238.01-18.15 237.43-19.05 236.51-19.55 235.58-20.05 234.38-20.05L234.38-20.05Q233.18-20.05 232.26-19.55 231.33-19.05 230.76-18.15 230.18-17.25 230.03-15.95ZM294.43-17.3L294.43 0 284.93 0 284.93-14.8Q284.93-16.75 284.15-17.63 283.38-18.5 282.28-18.5L282.28-18.5Q281.18-18.5 279.88-17.45 278.58-16.4 277.98-14.75L277.98-14.75 277.98 0 268.48 0 268.48-14.8Q268.48-16.75 267.7-17.63 266.93-18.5 265.83-18.5L265.83-18.5Q264.73-18.5 263.43-17.45 262.13-16.4 261.53-14.75L261.53-14.75 261.53 0 252.03 0 252.03-26.3 260.58-26.3 260.58-22.4Q261.98-24.55 264.43-25.68 266.88-26.8 270.23-26.8L270.23-26.8Q273.48-26.8 275.13-25.4 276.78-24 277.33-22.25L277.33-22.25Q278.73-24.4 281.18-25.6 283.63-26.8 286.68-26.8L286.68-26.8Q289.28-26.8 290.83-25.85 292.38-24.9 293.15-23.4 293.93-21.9 294.18-20.28 294.43-18.65 294.43-17.3L294.43-17.3ZM316.88-26.75L316.88-18.2Q314.13-18.2 311.88-17.6 309.63-17 308.53-15.6L308.53-15.6 308.53 0 299.03 0 299.03-26.3 307.73-26.3 307.73-21.3Q309.13-23.95 311.23-25.38 313.33-26.8 315.68-26.8L315.68-26.8Q316.23-26.8 316.45-26.8 316.68-26.8 316.88-26.75L316.88-26.75ZM336.57 0.5L336.57 0.5Q333.62 0.5 331.47-0.68 329.32-1.85 328.07-4.1L328.07-4.1 328.07 0 319.82 0 319.82-36.5 329.32-36.5 329.32-22.4Q330.47-24.55 332.57-25.68 334.67-26.8 337.52-26.8L337.52-26.8Q339.92-26.8 341.97-25.78 344.02-24.75 345.55-22.9 347.07-21.05 347.92-18.53 348.77-16 348.77-13.05L348.77-13.05Q348.77-10.15 347.85-7.68 346.92-5.2 345.3-3.35 343.67-1.5 341.45-0.5 339.22 0.5 336.57 0.5ZM333.82-7.5L333.82-7.5Q334.97-7.5 335.92-7.9 336.87-8.3 337.57-9.03 338.27-9.75 338.65-10.75 339.02-11.75 339.02-13L339.02-13Q339.02-14.6 338.4-15.93 337.77-17.25 336.7-18.03 335.62-18.8 334.22-18.8L334.22-18.8Q333.22-18.8 332.27-18.3 331.32-17.8 330.55-16.93 329.77-16.05 329.32-14.9L329.32-14.9 329.32-10.2Q329.77-9.55 330.3-9.03 330.82-8.5 331.37-8.18 331.92-7.85 332.55-7.68 333.17-7.5 333.82-7.5ZM365.12 0.5L365.12 0.5Q361.67 0.5 358.97-0.58 356.27-1.65 354.45-3.5 352.62-5.35 351.67-7.75 350.72-10.15 350.72-12.8L350.72-12.8Q350.72-16.6 352.37-19.78 354.02-22.95 357.22-24.88 360.42-26.8 365.12-26.8L365.12-26.8Q369.82-26.8 373.02-24.9 376.22-23 377.87-19.9 379.52-16.8 379.52-13.15L379.52-13.15Q379.52-12.4 379.45-11.63 379.37-10.85 379.27-10.25L379.27-10.25 360.82-10.25Q360.92-8.85 361.6-7.98 362.27-7.1 363.3-6.7 364.32-6.3 365.42-6.3L365.42-6.3Q366.97-6.3 368.35-7 369.72-7.7 370.17-8.95L370.17-8.95 378.22-6.65Q377.17-4.55 375.3-2.95 373.42-1.35 370.87-0.43 368.32 0.5 365.12 0.5ZM360.62-15.95L360.62-15.95 369.32-15.95Q369.17-17.25 368.6-18.15 368.02-19.05 367.1-19.55 366.17-20.05 364.97-20.05L364.97-20.05Q363.77-20.05 362.85-19.55 361.92-19.05 361.35-18.15 360.77-17.25 360.62-15.95ZM381.17-7.95L381.17-7.95Q381.17-10.6 382.62-12.63 384.07-14.65 386.64-15.8 389.22-16.95 392.52-16.95L392.52-16.95Q394.07-16.95 395.44-16.7 396.82-16.45 397.82-15.95L397.82-15.95 397.82-16.75Q397.82-18.6 396.74-19.5 395.67-20.4 393.27-20.4L393.27-20.4Q391.07-20.4 389.14-19.68 387.22-18.95 385.12-17.55L385.12-17.55 382.37-23.45Q385.02-25.15 387.94-25.98 390.87-26.8 394.22-26.8L394.22-26.8Q400.47-26.8 403.89-23.98 407.32-21.15 407.32-15.6L407.32-15.6 407.32-10.5Q407.32-9.15 407.72-8.63 408.12-8.1 409.12-8L409.12-8 409.12 0Q407.97 0.25 406.94 0.38 405.92 0.5 405.12 0.5L405.12 0.5Q402.57 0.5 401.24-0.43 399.92-1.35 399.52-3.15L399.52-3.15 399.32-4.1Q397.57-1.85 395.27-0.68 392.97 0.5 390.37 0.5L390.37 0.5Q387.77 0.5 385.67-0.6 383.57-1.7 382.37-3.63 381.17-5.55 381.17-7.95ZM396.57-7.3L396.57-7.3Q397.12-7.7 397.47-8.18 397.82-8.65 397.82-9.15L397.82-9.15 397.82-11.1Q397.02-11.4 395.99-11.6 394.97-11.8 394.17-11.8L394.17-11.8Q392.47-11.8 391.29-10.95 390.12-10.1 390.12-8.8L390.12-8.8Q390.12-8.1 390.52-7.53 390.92-6.95 391.62-6.63 392.32-6.3 393.22-6.3L393.22-6.3Q394.07-6.3 394.99-6.58 395.92-6.85 396.57-7.3ZM423.12 0.5L423.12 0.5Q419.67 0.5 416.34-0.63 413.02-1.75 410.72-3.9L410.72-3.9 413.97-9.75Q416.42-8.15 418.69-7.25 420.97-6.35 422.82-6.35L422.82-6.35Q423.87-6.35 424.37-6.63 424.87-6.9 424.87-7.55L424.87-7.55Q424.87-8 424.52-8.3 424.17-8.6 423.39-8.9 422.62-9.2 421.42-9.55L421.42-9.55Q418.32-10.65 416.24-11.6 414.17-12.55 413.14-13.93 412.12-15.3 412.12-17.6L412.12-17.6Q412.12-20.3 413.47-22.38 414.82-24.45 417.34-25.65 419.87-26.85 423.42-26.85L423.42-26.85Q426.07-26.85 428.74-26.03 431.42-25.2 433.92-23.05L433.92-23.05 430.32-17.25Q427.82-18.8 426.09-19.45 424.37-20.1 423.02-20.1L423.02-20.1Q422.37-20.1 421.89-19.95 421.42-19.8 421.17-19.5 420.92-19.2 420.92-18.7L420.92-18.7Q420.92-18.2 421.27-17.88 421.62-17.55 422.37-17.28 423.12-17 424.27-16.65L424.27-16.65Q427.67-15.65 429.82-14.63 431.97-13.6 432.99-12.15 434.02-10.7 434.02-8.35L434.02-8.35Q434.02-4.2 431.09-1.85 428.17 0.5 423.12 0.5ZM454.06-8.95L455.76-1.45Q454.46-0.9 452.99-0.43 451.51 0.05 449.99 0.3 448.46 0.55 447.01 0.55L447.01 0.55Q444.86 0.55 443.06-0.18 441.26-0.9 440.19-2.58 439.11-4.25 439.11-7.1L439.11-7.1 439.11-19.15 435.86-19.15 435.86-26.3 439.11-26.3 439.11-34.55 448.61-34.55 448.61-26.3 453.76-26.3 453.76-19.15 448.61-19.15 448.61-10.45Q448.61-9.15 449.16-8.63 449.71-8.1 450.66-8.1L450.66-8.1Q451.36-8.1 452.26-8.35 453.16-8.6 454.06-8.95L454.06-8.95Z" opacity="1" transform="matrix(1,0,0,1,0,0)" fill="#00acd2" class="wordmark-text-0" data-fill-palette-color="primary" id="text-0"></path></svg></g></svg></g></svg></g></svg></g><g><svg viewBox="0 0 70.82122136145756 57.26261777728922" height="57.26261777728922" width="70.82122136145756"><g><svg xmlns="http://www.w3.org/2000/svg" xmlns:xlink="http://www.w3.org/1999/xlink" version="1.1" x="0" y="0" viewBox="9.443332425279179 17.208222125905767 81.1126600709481 65.58377787409424" enable-background="new 0 0 100 100" xml:space="preserve" height="57.26261777728922" width="70.82122136145756" class="icon-icon-0" data-fill-palette-color="accent" id="icon-0"><path d="M84.326 82.792c-0.451 0-0.871-0.249-1.084-0.655-0.774-1.475-1.678-3.098-2.431-4.357-0.498 2.155-1.45 4.025-1.507 4.137-0.218 0.424-0.653 0.684-1.142 0.663-0.477-0.02-0.899-0.316-1.081-0.758-0.013-0.033-1.128-2.738-2.438-5.378-0.368 1.834-1.282 4.71-1.321 4.832-0.15 0.473-0.571 0.808-1.066 0.849-0.49 0.039-0.964-0.22-1.191-0.662l-3.432-6.688c-1.598 4.278-2.35 4.312-2.973 4.341-0.47 0.029-1.074-0.207-1.376-0.912-0.739-1.724-2.459-4.434-4.019-6.646 0.422 2.021 0.698 3.794 0.717 3.922 0.082 0.528-0.188 1.047-0.667 1.285-0.478 0.236-1.055 0.138-1.426-0.248-0.047-0.048-4.398-4.547-7.393-6.624l3.076 2.691c0.509 0.445 0.561 1.219 0.115 1.729-0.445 0.509-1.22 0.56-1.729 0.115l-2.852-2.496 1.159 1.174c0.475 0.481 0.47 1.257-0.012 1.732-0.482 0.475-1.257 0.47-1.732-0.012l-0.82-0.832c0.087 0.428-0.058 0.89-0.417 1.188-0.521 0.431-1.293 0.36-1.725-0.16l-0.143-0.172 0.052 0.092c0.333 0.589 0.125 1.336-0.463 1.669-0.588 0.331-1.336 0.126-1.669-0.463l-0.046-0.083c0.126 0.532-0.117 1.103-0.624 1.368-0.466 0.244-1.015 0.159-1.385-0.171 0.008 0.473-0.26 0.929-0.718 1.137-0.616 0.28-1.342 0.007-1.622-0.608l-0.496-1.09 0.396 1.125c0.224 0.638-0.111 1.337-0.749 1.562-0.641 0.221-1.338-0.111-1.563-0.75l-1.985-5.644c-0.224-0.639 0.111-1.338 0.75-1.563 0.636-0.226 1.337 0.111 1.562 0.75l0.806 2.292c0.065-0.389 0.316-0.738 0.702-0.914 0.281-0.128 0.586-0.139 0.861-0.058l-0.47-0.897c-0.313-0.6-0.082-1.34 0.517-1.653 0.601-0.314 1.34-0.083 1.653 0.517l0.949 1.813c-0.015-0.441 0.21-0.876 0.622-1.108 0.18-0.102 0.374-0.153 0.566-0.158l-0.341-0.411c-0.432-0.521-0.361-1.293 0.16-1.725 0.521-0.433 1.293-0.361 1.725 0.16l1.654 1.991c0-0.316 0.122-0.633 0.365-0.874 0.349-0.344 0.852-0.436 1.282-0.278l-0.713-0.625c-0.509-0.445-0.561-1.219-0.115-1.729 0.445-0.51 1.219-0.561 1.729-0.115l0.597 0.522c-0.152-0.354-0.137-0.773 0.08-1.127 0.353-0.577 1.108-0.758 1.685-0.404 1.725 1.057 3.959 3.028 5.704 4.673-0.306-1.472-0.688-3.063-1.091-4.151-0.557-1.504 0.142-2.041 0.608-2.227 0.871-0.348 1.529-0.312 4.895 4.461 1.109 1.573 2.438 3.607 3.397 5.357 0.494-1.144 1.098-2.782 1.567-4.231 0.153-0.471 0.574-0.804 1.067-0.844 0.494-0.031 0.962 0.222 1.188 0.662l3.34 6.509c0.158-0.59 0.304-1.179 0.401-1.671 0.51-2.565 0.854-3.702 2.006-3.81 1.057-0.089 1.476 0.925 1.652 1.362 0.041 0.1 0.079 0.203 0.123 0.284 0.784 1.457 1.547 3.073 2.145 4.396 0.317-1.028 0.552-2.157 0.479-3.083-0.097-1.232 0.715-1.565 0.967-1.638 0.776-0.223 1.372-0.396 4.034 4.298 0.134-2.024-0.017-4.105-0.811-5.139-0.457-0.594-0.316-1.223-0.057-1.581 0.628-0.864 1.509-0.555 3.266 0.063-0.058-1.041-0.185-2.484-0.525-4.199-0.627-3.157-2.77-6.373-2.792-6.405-0.317-0.471-0.268-1.098 0.117-1.515 0.385-0.417 1.006-0.514 1.5-0.236l2.016 1.136c0.028-1.104 0.023-2.585-0.098-4.191-0.243-3.226-2.387-6.245-2.409-6.275-0.298-0.416-0.307-0.973-0.021-1.398 0.286-0.424 0.808-0.627 1.303-0.507l1.239 0.298c-0.578-1.798-1.667-4.642-3.496-7.619-0.683-1.111-3.375-3.989-4.356-5.003-0.266-0.275-0.387-0.658-0.33-1.036s0.289-0.708 0.625-0.89c3.869-2.111 8.18-4.571 8.904-5.149 0.075-0.104 0.164-0.209 0.259-0.317 0.022-0.024 0.048-0.054 0.072-0.083-0.105-0.163-0.394-0.513-1.157-1.086-2.362-1.771-11.86-3.634-15.627-3.35-1.137 0.084-4.973 1.126-7.274 1.807-0.298 0.089-0.62 0.06-0.898-0.081-0.068-0.034-6.87-3.459-9.674-4.525-1.212-0.46-6.247-0.522-8.743-0.219-1.46 0.177-2.698-0.015-4.01-0.218-1.036-0.161-2.209-0.343-3.693-0.373-1.196-0.002-3.134 1.081-4.09 1.791-0.068 0.052-0.142 0.099-0.222 0.137l-7.395 3.553 1.177 1.331c1.971-0.167 4.162-0.309 6.353 0.129 0.654 0.131 1.225 0.296 1.714 0.499 1.216-0.336 6.058-1.619 8.102-1.319 0.021 0.003 0.042 0.006 0.063 0.01 1.341 0.222 3.208 1.276 4.856 2.207 0.789 0.446 1.769 0.999 2.092 1.09 0.003 0.001 0.007 0.002 0.011 0.003 0.508 0.118 2.596-0.249 3.598-0.424 1.081-0.189 1.775-0.307 2.23-0.313 0.1-0.004 0.194 0.006 0.29 0.027s0.188 0.052 0.274 0.094c0.859 0.394 13.666 6.47 14.574 18.799 0.297 4.034-1.477 10.28-4.861 13.338-2.14 1.933-7.913 2.051-9.049 2.055-0.001 0-0.003 0-0.004 0-0.674 0-1.222-0.545-1.225-1.22-0.003-0.677 0.543-1.227 1.22-1.23 2.437-0.01 6.348-0.458 7.416-1.423 2.705-2.444 4.311-7.938 4.06-11.34-0.745-10.112-11.107-15.73-12.904-16.631-0.276 0.032-0.695 0.101-1.115 0.173 0.933 1.963 2.566 5.728 2.582 8.076 0.022 3.35-5.493 7.592-6.599 8.408-0.543 0.401-1.311 0.287-1.713-0.258-0.402-0.544-0.287-1.311 0.257-1.713 2.267-1.675 5.615-4.875 5.604-6.421-0.013-1.933-1.73-5.806-2.653-7.675-0.889 0.125-1.608 0.181-2.167 0.124-6.987 2.71-7.754 2.586-8.087 2.535-3.013-0.477-5.67-2.292-6.377-2.809-2.573 0.106-6.229 0.466-7.257 1.018-0.594 0.319-2.381 2.332-3.774 4.099l-1.202 5.086c1.202 1.44 4.744 2.076 7.895 2.642 0.124 0.022 0.247 0.044 0.369 0.066 0.177-0.021 0.36-0.002 0.54 0.061 0.053 0.019 0.104 0.04 0.152 0.064 3.203 0.588 5.896 1.21 7.135 2.847 2.982 3.941 4.223 8.238 3.403 11.79L42.212 59.1c-0.693 3.006-1.111 4.82-2.75 6.36-1.367 1.286-3.252 0.561-5.248-0.207-0.931-0.358-1.893-0.729-2.858-0.936l-1.001-0.221c-8.232-1.824-11.644-2.445-13.031-2.626 0.057 0.55 0.19 1.312 0.358 1.992 0.16 0.647-0.226 1.304-0.87 1.478-1.125 0.308-2.76 1.15-2.897 1.927-0.348 1.965-1.979 9.832-2.047 10.166-0.138 0.662-0.792 1.084-1.448 0.951-0.663-0.138-1.088-0.786-0.951-1.448 0.017-0.082 1.693-8.166 2.035-10.095 0.329-1.86 2.272-2.952 3.558-3.481-0.547-2.822 0.067-3.368 0.38-3.645 0.278-0.247 0.491-0.436 1.842-0.303 0.823-1.675 2.309-4.849 2.654-6.278 0.354-1.466-0.029-3.532-0.558-5.327l-1.146 4.635c-0.104 0.422-0.424 0.757-0.84 0.88-0.416 0.125-0.867 0.018-1.185-0.279-0.238-0.222-2.348-2.226-3.097-4.136-0.711-1.815-0.536-4.252-0.419-5.271-0.572-0.899-2.125-3.796-1.422-7.841 0.438-2.524 1.452-4.766 1.787-5.462 0.077-0.604 0.367-1.983 1.451-2.967 0.749-0.679 1.738-1.023 2.857-1.011-0.798-1.527-1.512-2.917-1.774-4.693-0.027-0.181-0.013-0.366 0.042-0.542 0.46-1.487 2.276-4.112 5.891-3.388 3.103 0.621 6.5 1.701 7.36 1.981l2.849-0.047c0.887-0.615 3.286-2.077 5.293-2.054 1.648 0.032 2.909 0.228 4.021 0.401 1.239 0.192 2.218 0.346 3.337 0.208 2.382-0.292 8.072-0.338 9.91 0.36 2.532 0.962 7.9 3.623 9.474 4.41 1.496-0.435 5.79-1.651 7.322-1.764 3.967-0.29 14.2 1.525 17.277 3.833 1.412 1.059 2.083 1.945 2.177 2.874 0.096 0.95-0.461 1.578-0.729 1.88-0.038 0.042-0.075 0.081-0.104 0.121-0.171 0.287-0.471 0.788-8.324 5.106 1.179 1.264 2.937 3.214 3.581 4.261 3.267 5.317 4.306 10.125 4.349 10.328 0.087 0.411-0.043 0.838-0.345 1.131-0.302 0.292-0.735 0.411-1.141 0.313l-0.523-0.126c0.632 1.348 1.26 3.103 1.399 4.955 0.265 3.522 0.009 6.404-0.002 6.525-0.038 0.414-0.282 0.781-0.65 0.974-0.367 0.194-0.809 0.187-1.17-0.017l-0.084-0.047c0.459 1.066 0.882 2.269 1.123 3.483 0.505 2.546 0.576 4.517 0.613 5.576 0.009 0.251 0.012 0.434 0.025 0.537 0.052 0.418-0.125 0.879-0.452 1.145-0.547 0.447-1.075 0.353-2.243-0.048 0.746 3.354-0.208 7.625-0.35 8.222-0.118 0.497-0.531 0.869-1.039 0.933C84.429 82.788 84.377 82.792 84.326 82.792zM34.824 62.861c0.091 0.035 0.182 0.07 0.271 0.104 0.793 0.305 2.442 0.937 2.69 0.708 1.096-1.03 1.392-2.313 2.04-5.125l0.038-0.167c0.194-0.838 0.23-1.752 0.118-2.711-0.585 0.104-1.435 0.336-2.404 0.851-1.759 0.935-3.599 2.719-4.063 3.183C34 61.236 34.64 62.509 34.824 62.861zM30.917 61.71l0.774 0.171c-0.144-0.365-0.29-0.762-0.429-1.182C31.146 61.035 31.03 61.375 30.917 61.71zM25.844 60.604c0.818 0.175 1.706 0.367 2.666 0.577 1.98-5.959 2.266-6.114 3.351-5.95 0.528 0.082 1.066 0.524 1.076 1.327 0.001 0.106 0.005 0.213 0.011 0.32 0.912-0.808 2.191-1.834 3.48-2.52 1.168-0.621 2.211-0.929 3-1.08-0.527-1.547-1.383-3.138-2.533-4.657-0.04-0.052-0.085-0.104-0.136-0.153l-3.606 6.101c-0.2 0.337-0.548 0.559-0.938 0.596-0.392 0.04-0.774-0.114-1.034-0.407-0.159-0.18-1.562-1.804-1.765-3.356-0.26-1.991-0.03-3.804 0.213-4.992-3.281-0.593-6.562-1.26-8.368-2.971-0.17 0.124-0.357 0.253-0.557 0.38 0.732 1.764 2.39 6.29 1.616 9.488-0.361 1.496-1.601 4.211-2.413 5.909 3.315-5.789 3.621-5.7 4.568-5.42 0.545 0.161 0.938 0.769 0.907 1.336C25.249 57.545 25.631 59.654 25.844 60.604zM22.357 59.877c0.282 0.057 0.577 0.117 0.884 0.18-0.068-0.398-0.135-0.853-0.19-1.352C22.822 59.085 22.588 59.481 22.357 59.877zM32.041 46.853c-0.206 0.983-0.416 2.544-0.196 4.232 0.021 0.164 0.089 0.36 0.186 0.567l2.498-4.225C33.777 47.21 32.92 47.023 32.041 46.853zM15.053 44.5c-0.042 0.996 0.002 2.246 0.341 3.11 0.199 0.509 0.589 1.087 1.012 1.622l1.076-4.354C16.613 44.865 15.758 44.695 15.053 44.5zM14.685 41.799c0.545 0.214 1.751 0.63 2.906 0.63 0.892 0 2.097-0.823 2.747-1.382l1.183-5.005c-1.146-1.842-2.65-3.877-3.298-4.233-0.51-0.28-1.747-0.813-2.778-1.243-0.023 0.092-0.056 0.181-0.099 0.265-0.012 0.023-1.208 2.377-1.66 4.979C13.15 38.896 14.253 41.088 14.685 41.799zM16.762 28.461c0.965 0.406 2.082 0.894 2.641 1.201 1.121 0.616 2.565 2.583 3.546 4.067 1.111-1.341 2.676-3.1 3.626-3.61 1.166-0.625 3.59-0.96 5.64-1.138-2-0.379-4.146-0.193-6.042-0.028-1.179 0.103-2.292 0.2-3.254 0.148-0.642-0.034-1.338-0.202-2.076-0.38-0.589-0.143-1.196-0.29-1.846-0.391-0.438 0.077-0.978 0.102-1.56 0.076C17.185 28.394 16.96 28.412 16.762 28.461zM43.183 28.494l-1.132 2.841c-0.035 0.087-0.078 0.168-0.129 0.242 0.78-0.191 2.509-0.783 4.373-1.469C45.33 29.563 44.118 28.881 43.183 28.494zM36.722 29.483c0.564 0.385 1.665 1.076 2.981 1.592-0.034-0.211-0.013-0.434 0.072-0.646l0.855-2.146c-1.161 0.156-2.657 0.469-4 0.798C36.674 29.217 36.704 29.353 36.722 29.483zM22.391 26.562c0.246 0.049 0.467 0.083 0.657 0.093 0.098 0.005 0.199 0.008 0.303 0.009l-0.354-0.401L22.391 26.562zM18.067 21.201c0.242 1.268 0.796 2.327 1.485 3.644 0.068 0.119 0.139 0.205 0.208 0.284l2.966-1.465c0.018-0.009 0.035-0.018 0.052-0.025l4.607-2.233c-1.356-0.422-3.976-1.2-6.34-1.673C19.107 19.343 18.319 20.628 18.067 21.201zM31.837 80.802c-0.659 0-1.203-0.523-1.224-1.186l-0.223-6.987c-0.021-0.676 0.509-1.242 1.186-1.264 0.644-0.005 1.242 0.509 1.264 1.186l0.083 2.623c0.128-0.399 0.458-0.722 0.896-0.821 0.661-0.151 1.316 0.264 1.466 0.923l0.791 3.477c0.15 0.66-0.263 1.316-0.923 1.466-0.663 0.151-1.316-0.264-1.466-0.923l-0.735-3.23 0.111 3.473c0.021 0.676-0.509 1.242-1.186 1.264C31.864 80.802 31.851 80.802 31.837 80.802zM28.993 80.486c-0.008 0-0.017 0-0.025 0-0.676-0.014-1.213-0.573-1.2-1.25l0.079-3.912c0.013-0.676 0.524-1.22 1.25-1.2 0.676 0.014 1.213 0.573 1.2 1.25l-0.079 3.912C30.204 79.954 29.658 80.486 28.993 80.486zM25.951 79.841c-0.019 0-0.038 0-0.057-0.001-0.676-0.031-1.198-0.604-1.167-1.28l0.335-7.329c0.03-0.676 0.591-1.205 1.28-1.167 0.676 0.031 1.198 0.604 1.167 1.28l-0.335 7.329C27.144 79.329 26.602 79.841 25.951 79.841zM23.225 79.814c-0.045 0-0.091-0.002-0.137-0.008-0.672-0.074-1.157-0.68-1.082-1.353l0.395-3.556c0.075-0.672 0.68-1.162 1.353-1.082 0.672 0.074 1.157 0.68 1.082 1.353l-0.395 3.556C24.372 79.351 23.841 79.814 23.225 79.814zM18.444 78.906c-0.042 0-0.083-0.002-0.126-0.006-0.673-0.069-1.163-0.67-1.094-1.343l0.004-0.043c-0.236 0.435-0.725 0.7-1.244 0.631-0.67-0.092-1.14-0.71-1.048-1.38l0.443-3.235-0.802 4.083c-0.13 0.665-0.773 1.095-1.438 0.966-0.664-0.131-1.096-0.774-0.966-1.438l1.248-6.346c0.13-0.664 0.772-1.094 1.438-0.966 0.44 0.087 0.779 0.399 0.919 0.794l0.256-1.875c0.092-0.67 0.711-1.133 1.38-1.048 0.67 0.092 1.14 0.71 1.048 1.38l-0.592 4.326c0.252-0.292 0.634-0.464 1.053-0.419 0.435 0.044 0.793 0.312 0.974 0.676l0.422-3.672c0.077-0.672 0.683-1.162 1.356-1.077 0.672 0.077 1.155 0.685 1.077 1.356l-0.854 7.434c-0.078 0.672-0.692 1.159-1.356 1.077-0.425-0.048-0.773-0.309-0.954-0.664C19.411 78.584 18.958 78.906 18.444 78.906zM56.12 54.959c-0.306 0-0.612-0.114-0.85-0.342-0.487-0.469-0.502-1.244-0.034-1.732 0.028-0.03 2.875-3.016 4.271-6.344 1.31-3.123-0.025-7.456-0.039-7.5-0.202-0.645 0.156-1.333 0.8-1.536 0.644-0.203 1.332 0.153 1.536 0.797 0.067 0.211 1.623 5.224-0.038 9.186-1.577 3.76-4.637 6.961-4.766 7.096C56.761 54.833 56.44 54.959 56.12 54.959zM75.582 45.173c-0.021 0-0.042 0-0.063-0.001-0.676-0.035-1.196-0.61-1.162-1.286 0.231-4.551-5.314-9.545-7.47-11.085-0.551-0.393-0.678-1.158-0.285-1.708 0.392-0.551 1.157-0.679 1.708-0.285 0.361 0.258 8.839 6.395 8.494 13.203C76.771 44.665 76.229 45.173 75.582 45.173zM76.322 33.348c-0.398 0-0.788-0.192-1.023-0.548-0.373-0.563-0.223-1.319 0.339-1.693 0.206-0.138 1.558-0.939 2.814-1.68-1.579-0.645-3.35-1.355-3.935-1.541-2.788-0.885-5.947 0.446-5.979 0.459-0.621 0.266-1.341-0.02-1.609-0.639-0.268-0.62 0.015-1.339 0.635-1.609 0.162-0.071 4.019-1.715 7.694-0.546 1.211 0.385 6.196 2.463 6.408 2.552 0.428 0.179 0.719 0.584 0.75 1.047 0.032 0.463-0.202 0.904-0.602 1.139-1.724 1.012-4.557 2.683-4.819 2.856C76.788 33.283 76.554 33.348 76.322 33.348z" fill="#00acd2" data-fill-palette-color="accent"></path></svg></g></svg></g></svg></g><defs></defs></svg><rect width="395.52" height="47.568619082462966" fill="none" stroke="none" visibility="hidden"></rect></g></svg></g></svg>