<svg width="1000" height="121" viewBox="0 0 1000 121" fill="none" xmlns="http://www.w3.org/2000/svg">
<g clip-path="url(#clip0_64_28)">
<g clip-path="url(#clip1_64_28)">
<g clip-path="url(#clip2_64_28)">
<g clip-path="url(#clip3_64_28)">
<g clip-path="url(#clip4_64_28)">
<g clip-path="url(#clip5_64_28)">
<path d="M196.012 83.9471C191.763 83.9471 188.012 83.2794 184.759 81.9441C181.517 80.6087 178.774 78.7696 176.528 76.4267C174.282 74.0959 172.583 71.4434 171.429 68.4692C170.276 65.495 169.699 62.3691 169.699 59.0914C169.699 54.7212 170.719 50.6362 172.759 46.8365C174.786 43.049 177.76 40.002 181.681 37.6954C185.59 35.3889 190.367 34.2357 196.012 34.2357C201.778 34.2357 206.634 35.4496 210.579 37.8775C214.525 40.3054 217.469 43.4314 219.411 47.2553L202.567 52.3539C201.778 51.2007 200.825 50.3206 199.708 49.7136C198.579 49.1066 197.317 48.8031 195.921 48.8031C194.343 48.8031 192.916 49.2098 191.642 50.0232C190.367 50.8486 189.353 52.0201 188.601 53.5375C187.836 55.055 187.454 56.9063 187.454 59.0914C187.454 61.2158 187.836 63.0489 188.601 64.5906C189.353 66.1445 190.367 67.3281 191.642 68.1414C192.916 68.9669 194.343 69.3797 195.921 69.3797C196.892 69.3797 197.772 69.24 198.561 68.9608C199.35 68.6938 200.097 68.2871 200.801 67.7408C201.493 67.1945 202.082 66.5572 202.567 65.8288L219.411 70.9274C218.136 73.4768 216.394 75.7226 214.185 77.6649C211.963 79.6072 209.353 81.1368 206.355 82.2536C203.344 83.3826 199.897 83.9471 196.012 83.9471ZM273.037 51.5345V83.0366H255.738V56.0869C255.738 53.7196 255.204 52.0019 254.136 50.9336C253.08 49.8775 251.763 49.3494 250.185 49.3494C249.456 49.3494 248.558 49.6225 247.49 50.1688C246.434 50.7151 245.42 51.5042 244.449 52.536C243.478 53.5679 242.719 54.7819 242.173 56.1779V83.0366H224.874V16.5726H242.173V42.2478C243.872 39.6378 246.1 37.6469 248.855 36.2751C251.623 34.9155 254.676 34.2357 258.015 34.2357C261.414 34.2357 264.115 34.7941 266.118 35.9109C268.121 37.0399 269.608 38.4845 270.579 40.2447C271.55 42.005 272.2 43.8866 272.527 45.8896C272.867 47.8927 273.037 49.7743 273.037 51.5345ZM278.773 68.5602C278.773 65.3433 279.653 62.5026 281.414 60.0383C283.174 57.5861 285.614 55.662 288.734 54.2659C291.866 52.8699 295.435 52.1718 299.441 52.1718C301.322 52.1718 303.095 52.3236 304.758 52.6271C306.433 52.9306 307.878 53.3858 309.092 53.9928V52.536C309.092 50.2902 308.436 48.621 307.125 47.5285C305.814 46.4359 303.708 45.8896 300.807 45.8896C298.136 45.8896 295.629 46.3267 293.286 47.2007C290.955 48.0869 288.515 49.3798 285.966 51.0793L280.958 40.3358C284.175 38.2721 287.556 36.7364 291.101 35.7288C294.658 34.7334 298.47 34.2357 302.536 34.2357C310.124 34.2357 315.993 35.9473 320.145 39.3707C324.309 42.8062 326.391 47.8927 326.391 54.6301V63.9169C326.391 65.5557 326.633 66.6907 327.119 67.322C327.605 67.9654 328.454 68.3478 329.668 68.4692V83.0366C328.272 83.3401 326.949 83.5708 325.699 83.7286C324.448 83.8743 323.344 83.9471 322.385 83.9471C319.289 83.9471 316.934 83.3826 315.319 82.2536C313.705 81.1368 312.661 79.4858 312.187 77.3007L311.823 75.5708C309.699 78.3022 307.241 80.3781 304.448 81.7984C301.656 83.2309 298.682 83.9471 295.526 83.9471C292.37 83.9471 289.511 83.2794 286.949 81.9441C284.412 80.6087 282.415 78.7696 280.958 76.4267C279.502 74.0959 278.773 71.4737 278.773 68.5602ZM306.816 69.7438C307.483 69.2583 308.03 68.7241 308.454 68.1414C308.879 67.5709 309.092 66.9821 309.092 66.3751V62.8243C308.121 62.4601 307.01 62.1566 305.759 61.9138C304.521 61.671 303.41 61.5496 302.427 61.5496C300.376 61.5496 298.634 62.0656 297.201 63.0974C295.781 64.1293 295.071 65.4343 295.071 67.0124C295.071 67.8622 295.313 68.6331 295.799 69.325C296.272 70.0291 296.94 70.5754 297.802 70.9639C298.652 71.3645 299.623 71.5648 300.716 71.5648C301.747 71.5648 302.822 71.3948 303.939 71.0549C305.055 70.7271 306.014 70.2901 306.816 69.7438ZM335.568 70.108V16.5726H352.867V64.0079C352.867 65.7681 353.249 67.1217 354.014 68.0686C354.767 69.0033 355.872 69.4707 357.328 69.4707C358.057 69.4707 358.846 69.3493 359.696 69.1065C360.545 68.8637 361.334 68.5299 362.063 68.105L364.248 80.8515C362.184 81.8227 359.865 82.5814 357.292 83.1277C354.706 83.674 352.26 83.9471 349.954 83.9471C345.34 83.9471 341.79 82.7453 339.301 80.3417C336.812 77.9502 335.568 74.539 335.568 70.108ZM367.89 70.108V16.5726H385.189V64.0079C385.189 65.7681 385.571 67.1217 386.336 68.0686C387.088 69.0033 388.193 69.4707 389.65 69.4707C390.378 69.4707 391.167 69.3493 392.017 69.1065C392.867 68.8637 393.656 68.5299 394.384 68.105L396.569 80.8515C394.506 81.8227 392.187 82.5814 389.613 83.1277C387.028 83.674 384.582 83.9471 382.275 83.9471C377.662 83.9471 374.111 82.7453 371.623 80.3417C369.134 77.9502 367.89 74.539 367.89 70.108ZM424.156 83.9471C419.968 83.9471 416.235 83.2916 412.958 81.9805C409.68 80.6816 406.93 78.9092 404.709 76.6634C402.5 74.4176 400.818 71.8379 399.665 68.9244C398.512 66.0109 397.935 62.9457 397.935 59.7287C397.935 55.1157 398.937 50.879 400.94 47.0186C402.943 43.1704 405.886 40.0748 409.771 37.7319C413.656 35.4011 418.451 34.2357 424.156 34.2357C429.862 34.2357 434.657 35.3889 438.542 37.6954C442.427 40.002 445.37 43.0368 447.373 46.8001C449.376 50.5634 450.378 54.6605 450.378 59.0914C450.378 60.0019 450.329 60.9245 450.232 61.8592C450.147 62.8061 450.044 63.6437 449.923 64.3721H416.326C416.448 66.0716 416.915 67.4495 417.729 68.5056C418.554 69.5739 419.586 70.3508 420.824 70.8364C422.075 71.322 423.367 71.5648 424.703 71.5648C426.584 71.5648 428.357 71.1399 430.02 70.2901C431.695 69.4404 432.806 68.2567 433.352 66.7393L448.011 70.9274C446.736 73.4768 444.958 75.7226 442.675 77.6649C440.405 79.6072 437.722 81.1368 434.627 82.2536C431.531 83.3826 428.041 83.9471 424.156 83.9471ZM415.962 53.9928H431.804C431.622 52.4146 431.179 51.0793 430.475 49.9867C429.783 48.8942 428.873 48.0444 427.744 47.4374C426.627 46.8304 425.34 46.527 423.883 46.527C422.427 46.527 421.134 46.8304 420.005 47.4374C418.888 48.0444 417.977 48.8942 417.273 49.9867C416.581 51.0793 416.144 52.4146 415.962 53.9928ZM504.186 51.5345V83.0366H486.888V56.0869C486.888 53.7196 486.353 52.0019 485.285 50.9336C484.229 49.8775 483.003 49.3494 481.607 49.3494C480.636 49.3494 479.604 49.6347 478.511 50.2052C477.419 50.7879 476.417 51.5952 475.507 52.6271C474.596 53.6589 473.868 54.8425 473.322 56.1779V83.0366H456.023V35.1461H471.592V42.2478C472.745 40.4875 474.202 39.0126 475.962 37.8229C477.722 36.6454 479.756 35.7531 482.062 35.1461C484.369 34.5392 486.888 34.2357 489.619 34.2357C492.897 34.2357 495.507 34.8123 497.449 35.9656C499.391 37.1188 500.848 38.6059 501.819 40.4268C502.79 42.2478 503.428 44.1415 503.731 46.1081C504.035 48.0869 504.186 49.8957 504.186 51.5345ZM530.936 83.0366C527.84 83.0366 525.006 82.4297 522.432 81.2157C519.846 80.0018 517.643 78.3022 515.822 76.1171C514.001 73.932 512.593 71.3827 511.598 68.4692C510.59 65.5557 510.086 62.3994 510.086 59.0003C510.086 55.4192 510.633 52.1233 511.725 49.1127C512.818 46.1142 514.353 43.4921 516.332 41.2463C518.299 39.0004 520.648 37.2706 523.379 36.0566C526.11 34.8426 529.115 34.2357 532.393 34.2357C535.792 34.2357 538.815 34.9155 541.461 36.2751C544.095 37.6469 546.171 39.6378 547.689 42.2478V35.1461H562.711V78.6664C562.711 83.6436 561.497 87.9835 559.069 91.6861C556.641 95.3886 553.242 98.2536 548.872 100.281C544.502 102.32 539.403 103.34 533.576 103.34C528.538 103.34 524.126 102.551 520.338 100.973C516.538 99.3947 513.182 97.1185 510.268 94.1443L519.373 84.6755C521.133 86.3143 523.246 87.6982 525.71 88.8272C528.162 89.944 530.784 90.5025 533.576 90.5025C535.701 90.5025 537.661 90.1079 539.458 89.3189C541.242 88.5298 542.681 87.2733 543.774 85.5495C544.866 83.8136 545.412 81.5192 545.412 78.6664V75.5708C544.077 78.0594 542.092 79.9229 539.458 81.1611C536.811 82.4115 533.971 83.0366 530.936 83.0366ZM537.127 69.3797C537.977 69.3797 538.784 69.2704 539.549 69.0519C540.302 68.8455 541.012 68.542 541.679 68.1414C542.347 67.753 543.003 67.237 543.646 66.5936C544.277 65.9624 544.866 65.2522 545.412 64.4631V55.9048C544.866 54.448 544.107 53.1855 543.136 52.1172C542.165 51.0611 541.103 50.2477 539.95 49.6772C538.796 49.0945 537.613 48.8031 536.399 48.8031C535.185 48.8031 534.05 49.0763 532.994 49.6225C531.925 50.1688 530.997 50.9458 530.208 51.9533C529.418 52.9488 528.812 54.0838 528.387 55.3585C527.962 56.6331 527.749 57.9988 527.749 59.4556C527.749 60.9123 527.98 62.2477 528.441 63.4616C528.89 64.6756 529.54 65.7196 530.39 66.5936C531.239 67.4798 532.241 68.1657 533.394 68.6513C534.547 69.1369 535.792 69.3797 537.127 69.3797ZM595.033 83.9471C590.845 83.9471 587.112 83.2916 583.834 81.9805C580.556 80.6816 577.813 78.9092 575.603 76.6634C573.382 74.4176 571.694 71.8379 570.541 68.9244C569.388 66.0109 568.811 62.9457 568.811 59.7287C568.811 55.1157 569.813 50.879 571.816 47.0186C573.819 43.1704 576.763 40.0748 580.647 37.7319C584.532 35.4011 589.327 34.2357 595.033 34.2357C600.738 34.2357 605.533 35.3889 609.418 37.6954C613.303 40.002 616.247 43.0368 618.25 46.8001C620.253 50.5634 621.254 54.6605 621.254 59.0914C621.254 60.0019 621.212 60.9245 621.127 61.8592C621.03 62.8061 620.92 63.6437 620.799 64.3721H587.203C587.324 66.0716 587.798 67.4495 588.623 68.5056C589.436 69.5739 590.468 70.3508 591.719 70.8364C592.957 71.322 594.244 71.5648 595.579 71.5648C597.461 71.5648 599.239 71.1399 600.914 70.2901C602.577 69.4404 603.682 68.2567 604.228 66.7393L618.887 70.9274C617.612 73.4768 615.84 75.7226 613.57 77.6649C611.288 79.6072 608.599 81.1368 605.503 82.2536C602.408 83.3826 598.917 83.9471 595.033 83.9471ZM586.839 53.9928H602.681C602.499 52.4146 602.062 51.0793 601.37 49.9867C600.665 48.8942 599.755 48.0444 598.638 47.4374C597.509 46.8304 596.216 46.527 594.76 46.527C593.303 46.527 592.016 46.8304 590.899 47.4374C589.77 48.0444 588.86 48.8942 588.168 49.9867C587.464 51.0793 587.021 52.4146 586.839 53.9928ZM704.107 51.5345V83.0366H686.808V56.0869C686.808 53.7196 686.334 52.0019 685.387 50.9336C684.453 49.8775 683.318 49.3494 681.982 49.3494C680.647 49.3494 679.19 49.9867 677.612 51.2614C676.034 52.536 674.881 54.1749 674.152 56.1779V83.0366H656.853V56.0869C656.853 53.7196 656.38 52.0019 655.433 50.9336C654.498 49.8775 653.363 49.3494 652.028 49.3494C650.693 49.3494 649.236 49.9867 647.658 51.2614C646.079 52.536 644.926 54.1749 644.198 56.1779V83.0366H626.899V35.1461H642.468V42.2478C644.168 39.6378 646.504 37.6469 649.479 36.2751C652.453 34.9155 655.973 34.2357 660.04 34.2357C663.985 34.2357 666.96 35.0854 668.963 36.785C670.966 38.4845 672.301 40.3965 672.969 42.5209C674.668 39.9109 677.005 37.8775 679.979 36.4208C682.953 34.964 686.292 34.2357 689.994 34.2357C693.151 34.2357 695.67 34.8123 697.551 35.9656C699.433 37.1188 700.841 38.6059 701.776 40.4268C702.723 42.2478 703.348 44.1415 703.651 46.1081C703.955 48.0869 704.107 49.8957 704.107 51.5345ZM744.986 34.3267V49.8957C741.648 49.8957 738.613 50.2599 735.882 50.9882C733.15 51.7166 731.117 52.9306 729.782 54.6301V83.0366H712.483V35.1461H728.325V44.2508C730.024 41.0338 732.149 38.5573 734.698 36.8214C737.248 35.0976 739.949 34.2357 742.801 34.2357C743.469 34.2357 743.936 34.2357 744.203 34.2357C744.483 34.2357 744.744 34.266 744.986 34.3267ZM780.841 83.9471C777.259 83.9471 774.164 83.2309 771.554 81.7984C768.944 80.3781 766.88 78.3022 765.363 75.5708V83.0366H750.34V16.5726H767.639V42.2478C769.035 39.6378 771.008 37.6469 773.557 36.2751C776.106 34.9155 779.111 34.2357 782.57 34.2357C785.484 34.2357 788.185 34.8548 790.674 36.093C793.162 37.3434 795.335 39.0915 797.193 41.3373C799.038 43.5831 800.476 46.2356 801.508 49.2948C802.54 52.3661 803.056 55.6923 803.056 59.2735C803.056 62.794 802.498 66.0534 801.381 69.0519C800.252 72.0625 798.704 74.6907 796.737 76.9365C794.759 79.1823 792.422 80.9122 789.727 82.1262C787.02 83.3401 784.058 83.9471 780.841 83.9471ZM775.833 69.3797C777.229 69.3797 778.504 69.1369 779.657 68.6513C780.81 68.1657 781.812 67.4798 782.662 66.5936C783.511 65.7196 784.167 64.6756 784.628 63.4616C785.077 62.2477 785.302 60.882 785.302 59.3645C785.302 57.4222 784.926 55.6438 784.173 54.0292C783.408 52.4268 782.376 51.1521 781.077 50.2052C779.766 49.2705 778.261 48.8031 776.561 48.8031C775.347 48.8031 774.164 49.1066 773.011 49.7136C771.857 50.3206 770.813 51.1521 769.879 52.2083C768.932 53.2765 768.185 54.5087 767.639 55.9048V64.4631C768.185 65.2522 768.78 65.9624 769.423 66.5936C770.055 67.237 770.704 67.753 771.372 68.1414C772.039 68.542 772.756 68.8455 773.52 69.0519C774.273 69.2704 775.044 69.3797 775.833 69.3797ZM832.828 83.9471C828.64 83.9471 824.907 83.2916 821.629 81.9805C818.352 80.6816 815.608 78.9092 813.399 76.6634C811.177 74.4176 809.49 71.8379 808.337 68.9244C807.183 66.0109 806.607 62.9457 806.607 59.7287C806.607 55.1157 807.608 50.879 809.611 47.0186C811.614 43.1704 814.558 40.0748 818.443 37.7319C822.328 35.4011 827.123 34.2357 832.828 34.2357C838.534 34.2357 843.329 35.3889 847.214 37.6954C851.098 40.002 854.042 43.0368 856.045 46.8001C858.048 50.5634 859.05 54.6605 859.05 59.0914C859.05 60.0019 859.007 60.9245 858.922 61.8592C858.825 62.8061 858.716 63.6437 858.594 64.3721H824.998C825.12 66.0716 825.593 67.4495 826.419 68.5056C827.232 69.5739 828.264 70.3508 829.514 70.8364C830.752 71.322 832.039 71.5648 833.375 71.5648C835.256 71.5648 837.035 71.1399 838.71 70.2901C840.373 69.4404 841.478 68.2567 842.024 66.7393L856.682 70.9274C855.408 73.4768 853.635 75.7226 851.365 77.6649C849.083 79.6072 846.394 81.1368 843.299 82.2536C840.203 83.3826 836.713 83.9471 832.828 83.9471ZM824.634 53.9928H840.476C840.294 52.4146 839.857 51.0793 839.165 49.9867C838.461 48.8942 837.551 48.0444 836.434 47.4374C835.305 46.8304 834.012 46.527 832.555 46.527C831.098 46.527 829.812 46.8304 828.695 47.4374C827.566 48.0444 826.655 48.8942 825.963 49.9867C825.259 51.0793 824.816 52.4146 824.634 53.9928ZM862.054 68.5602C862.054 65.3433 862.934 62.5026 864.695 60.0383C866.455 57.5861 868.895 55.662 872.015 54.2659C875.147 52.8699 878.716 52.1718 882.722 52.1718C884.603 52.1718 886.376 52.3236 888.039 52.6271C889.714 52.9306 891.159 53.3858 892.373 53.9928V52.536C892.373 50.2902 891.717 48.621 890.406 47.5285C889.107 46.4359 887.001 45.8896 884.087 45.8896C881.417 45.8896 878.91 46.3267 876.567 47.2007C874.236 48.0869 871.796 49.3798 869.247 51.0793L864.239 40.3358C867.456 38.2721 870.837 36.7364 874.382 35.7288C877.939 34.7334 881.751 34.2357 885.817 34.2357C893.405 34.2357 899.274 35.9473 903.426 39.3707C907.59 42.8062 909.672 47.8927 909.672 54.6301V63.9169C909.672 65.5557 909.914 66.6907 910.4 67.322C910.885 67.9654 911.735 68.3478 912.949 68.4692V83.0366C911.553 83.3401 910.23 83.5708 908.98 83.7286C907.741 83.8743 906.637 83.9471 905.665 83.9471C902.57 83.9471 900.215 83.3826 898.6 82.2536C896.998 81.1368 895.954 79.4858 895.468 77.3007L895.104 75.5708C892.98 78.3022 890.521 80.3781 887.729 81.7984C884.937 83.2309 881.963 83.9471 878.807 83.9471C875.65 83.9471 872.798 83.2794 870.248 81.9441C867.699 80.6087 865.696 78.7696 864.239 76.4267C862.783 74.0959 862.054 71.4737 862.054 68.5602ZM890.097 69.7438C890.764 69.2583 891.31 68.7241 891.735 68.1414C892.16 67.5709 892.373 66.9821 892.373 66.3751V62.8243C891.402 62.4601 890.291 62.1566 889.04 61.9138C887.802 61.671 886.697 61.5496 885.726 61.5496C883.663 61.5496 881.914 62.0656 880.482 63.0974C879.062 64.1293 878.352 65.4343 878.352 67.0124C878.352 67.8622 878.594 68.6331 879.08 69.325C879.565 70.0291 880.233 70.5754 881.083 70.9639C881.933 71.3645 882.904 71.5648 883.996 71.5648C885.028 71.5648 886.103 71.3948 887.219 71.0549C888.348 70.7271 889.307 70.2901 890.097 69.7438ZM938.442 83.9471C934.254 83.9471 930.139 83.2612 926.096 81.8895C922.066 80.5298 918.655 78.545 915.863 75.935L921.781 65.2826C924.755 67.2249 927.62 68.7423 930.376 69.8349C933.143 70.9274 935.65 71.4737 937.896 71.4737C939.171 71.4737 940.111 71.3038 940.718 70.9639C941.325 70.6361 941.629 70.0777 941.629 69.2886C941.629 68.7423 941.416 68.2871 940.992 67.9229C940.567 67.5587 939.881 67.1945 938.934 66.8303C937.999 66.4662 936.803 66.0716 935.347 65.6467C931.583 64.3114 928.439 63.0671 925.914 61.9138C923.401 60.7606 921.52 59.3463 920.269 57.6711C919.031 56.0079 918.412 53.7803 918.412 50.9882C918.412 47.7106 919.231 44.8092 920.87 42.2842C922.509 39.7713 924.858 37.7865 927.917 36.3297C930.989 34.873 934.679 34.1446 938.989 34.1446C942.206 34.1446 945.435 34.6423 948.676 35.6378C951.929 36.6454 955.073 38.4542 958.108 41.0642L951.553 51.6256C948.518 49.7439 945.951 48.4086 943.85 47.6195C941.762 46.8304 939.899 46.4359 938.26 46.4359C937.471 46.4359 936.785 46.527 936.203 46.7091C935.632 46.8911 935.195 47.1643 934.891 47.5285C934.588 47.8927 934.436 48.3782 934.436 48.9852C934.436 49.5922 934.649 50.0899 935.074 50.4784C935.498 50.879 936.166 51.2432 937.077 51.5709C937.987 51.9108 939.14 52.2932 940.536 52.7181C944.664 53.9321 948.033 55.1582 950.643 56.3964C953.253 57.6468 955.177 59.1521 956.415 60.9123C957.665 62.6726 958.29 64.9791 958.29 67.8319C958.29 72.8698 956.512 76.8151 952.955 79.6679C949.41 82.5207 944.573 83.9471 938.442 83.9471ZM994.782 66.7393L997.878 80.3963C996.299 81.064 994.618 81.6831 992.833 82.2536C991.037 82.8363 989.216 83.2794 987.371 83.5829C985.513 83.8864 983.705 84.0382 981.944 84.0382C979.334 84.0382 976.937 83.5951 974.752 82.7089C972.567 81.8348 970.825 80.3781 969.526 78.3386C968.215 76.3113 967.559 73.5678 967.559 70.108V48.1658H961.641V35.1461H967.559V20.1235H984.858V35.1461H994.236V48.1658H984.858V64.0079C984.858 65.586 985.192 66.6907 985.859 67.322C986.527 67.9654 987.437 68.2871 988.591 68.2871C989.441 68.2871 990.412 68.1353 991.504 67.8319C992.597 67.5284 993.689 67.1642 994.782 66.7393Z" fill="white"/>
</g>
</g>
</g>
</g>
<g clip-path="url(#clip6_64_28)">
<g clip-path="url(#clip7_64_28)">
<path d="M137.789 119.913C136.964 119.913 136.196 119.457 135.807 118.715C134.391 116.018 132.739 113.051 131.362 110.749C130.451 114.689 128.711 118.108 128.606 118.313C128.208 119.088 127.412 119.563 126.518 119.525C125.646 119.488 124.875 118.947 124.542 118.139C124.518 118.079 122.479 113.133 120.084 108.306C119.411 111.659 117.74 116.918 117.669 117.141C117.395 118.006 116.625 118.618 115.72 118.693C114.824 118.764 113.957 118.291 113.542 117.483L107.267 105.254C104.346 113.076 102.971 113.138 101.831 113.191C100.972 113.244 99.8678 112.813 99.3156 111.524C97.9644 108.372 94.8196 103.417 91.9673 99.3725C92.7389 103.068 93.2435 106.309 93.2783 106.543C93.4282 107.509 92.9345 108.458 92.0587 108.893C91.1848 109.324 90.1298 109.145 89.4515 108.439C89.3655 108.352 81.4102 100.126 75.9342 96.3282L81.5583 101.248C82.489 102.062 82.584 103.477 81.7686 104.41C80.955 105.34 79.538 105.434 78.6073 104.62L73.3927 100.056L75.5118 102.203C76.3803 103.082 76.3712 104.501 75.4899 105.37C74.6086 106.238 73.1916 106.229 72.3231 105.348L70.8239 103.826C70.9829 104.609 70.7178 105.454 70.0614 105.999C69.1088 106.787 67.6973 106.657 66.9075 105.706L66.646 105.392L66.7411 105.56C67.3499 106.637 66.9696 108.002 65.8945 108.611C64.8194 109.216 63.4518 108.842 62.8429 107.765L62.7588 107.613C62.9892 108.586 62.5449 109.63 61.6179 110.114C60.7659 110.56 59.7621 110.405 59.0856 109.802C59.1002 110.666 58.6102 111.5 57.7728 111.88C56.6465 112.392 55.3191 111.893 54.8072 110.769L53.9003 108.776L54.6243 110.833C55.0339 111.999 54.4214 113.277 53.2549 113.689C52.0829 114.093 50.8085 113.486 50.3971 112.317L46.7678 101.998C46.3582 100.83 46.9707 99.5516 48.1391 99.1403C49.3019 98.727 50.5836 99.3432 50.995 100.512L52.4687 104.702C52.5875 103.991 53.0464 103.353 53.7522 103.031C54.266 102.797 54.8236 102.777 55.3264 102.925L54.4671 101.285C53.8948 100.188 54.3172 98.8349 55.4124 98.2626C56.5112 97.6885 57.8624 98.1109 58.4347 99.2079L60.1698 102.523C60.1424 101.716 60.5538 100.921 61.3071 100.497C61.6362 100.31 61.9909 100.217 62.342 100.208L61.7185 99.4566C60.9286 98.504 61.0584 97.0925 62.011 96.3026C62.9636 95.5109 64.3751 95.6425 65.165 96.5951L68.1892 100.235C68.1892 99.6577 68.4122 99.0781 68.8565 98.6374C69.4946 98.0085 70.4143 97.8403 71.2005 98.1291L69.8969 96.9864C68.9662 96.1728 68.8711 94.7576 69.6866 93.8251C70.5002 92.8927 71.9154 92.7994 72.8479 93.6149L73.9394 94.5693C73.6615 93.922 73.6889 93.1559 74.0857 92.5087C74.7311 91.4537 76.1116 91.1228 77.1665 91.77C80.3205 93.7026 84.4051 97.3064 87.5957 100.314C87.0362 97.6227 86.3377 94.7137 85.6009 92.7244C84.5825 89.9745 85.8605 88.9927 86.7125 88.6526C88.3051 88.0163 89.5081 88.0822 95.6625 96.8091C97.6902 99.6851 100.12 103.404 101.874 106.604C102.777 104.512 103.881 101.517 104.739 98.8678C105.018 98.0066 105.788 97.3978 106.69 97.3247C107.593 97.268 108.448 97.7306 108.862 98.5351L114.968 110.436C115.257 109.357 115.524 108.28 115.702 107.381C116.634 102.691 117.263 100.612 119.369 100.415C121.302 100.252 122.068 102.106 122.39 102.905C122.465 103.088 122.534 103.276 122.615 103.424C124.048 106.088 125.443 109.043 126.537 111.462C127.116 109.582 127.546 107.518 127.412 105.825C127.235 103.572 128.72 102.963 129.18 102.83C130.599 102.422 131.689 102.106 136.556 110.688C136.801 106.988 136.525 103.183 135.073 101.292C134.238 100.206 134.496 99.0561 134.969 98.4016C136.117 96.8219 137.728 97.3868 140.941 98.5168C140.835 96.6134 140.602 93.9751 139.981 90.8394C138.834 85.0671 134.916 79.1871 134.876 79.1285C134.296 78.2674 134.386 77.121 135.09 76.3585C135.794 75.5961 136.929 75.4188 137.832 75.927L141.518 78.0041C141.57 75.9855 141.561 73.2777 141.339 70.3413C140.895 64.4429 136.975 58.923 136.935 58.8682C136.39 58.1076 136.373 57.0892 136.896 56.3121C137.419 55.5369 138.374 55.1657 139.279 55.3851L141.544 55.93C140.487 52.6425 138.496 47.4426 135.152 41.9995C133.903 39.9681 128.981 34.706 127.188 32.8521C126.701 32.3492 126.48 31.649 126.584 30.9578C126.688 30.2667 127.113 29.6634 127.727 29.3306C134.801 25.4709 142.683 20.973 144.007 19.9162C144.144 19.7261 144.307 19.5341 144.48 19.3366C144.521 19.2927 144.568 19.2379 144.612 19.1849C144.42 18.8868 143.892 18.2469 142.497 17.1992C138.178 13.9612 120.812 10.5549 113.924 11.0741C111.846 11.2277 104.832 13.1329 100.625 14.378C100.08 14.5408 99.4911 14.4877 98.9829 14.2299C98.8585 14.1678 86.4218 7.90554 81.295 5.95648C79.079 5.11542 69.8731 5.00206 65.3094 5.55606C62.64 5.87969 60.3765 5.52864 57.9776 5.15747C56.0834 4.8631 53.9387 4.53034 51.2254 4.47549C49.0386 4.47183 45.4952 6.45197 43.7473 7.75013C43.6229 7.8452 43.4876 7.93114 43.3414 8.00062L29.8204 14.4969L31.9725 16.9305C35.5762 16.6251 39.5822 16.3655 43.5882 17.1663C44.784 17.4058 45.828 17.7075 46.7221 18.0787C48.9454 17.4644 57.7984 15.1185 61.5356 15.667C61.574 15.6725 61.6124 15.678 61.6508 15.6853C64.1027 16.0912 67.5163 18.0184 70.5295 19.7206C71.9721 20.536 73.7639 21.5471 74.3545 21.7135C74.36 21.7154 74.3673 21.7172 74.3746 21.719C75.3034 21.9348 79.1211 21.2637 80.9531 20.9438C82.9296 20.5982 84.1985 20.3825 85.0304 20.3715C85.2133 20.3642 85.3851 20.3825 85.5607 20.4209C85.7362 20.4593 85.9044 20.5159 86.0616 20.5927C87.6322 21.3131 111.048 32.4224 112.709 54.9646C113.252 62.3403 110.008 73.7604 103.821 79.3516C99.908 82.8859 89.3527 83.1016 87.2757 83.1089H87.2684C86.036 83.1089 85.0341 82.1125 85.0286 80.8783C85.0231 79.6405 86.0214 78.6349 87.2592 78.6294C91.715 78.6111 98.8658 77.792 100.819 76.0276C105.764 71.559 108.701 61.5139 108.242 55.2937C106.88 36.805 87.9339 26.5332 84.6483 24.8858C84.1437 24.9443 83.3776 25.0704 82.6096 25.2021C84.3155 28.7912 87.3013 35.6751 87.3305 39.9681C87.3708 46.0932 77.2872 53.8493 75.265 55.3412C74.2722 56.0744 72.868 55.866 72.133 54.8695C71.398 53.8749 71.6082 52.4725 72.6029 51.7375C76.7478 48.6749 82.8693 42.8241 82.8492 39.9974C82.8254 36.4631 79.6861 29.3818 77.9985 25.9645C76.373 26.1931 75.0584 26.2955 74.0363 26.1912C61.2614 31.1462 59.859 30.9195 59.2502 30.8262C53.7412 29.9541 48.8832 26.6355 47.5905 25.6903C42.8861 25.8841 36.2015 26.5423 34.3219 27.5516C33.2359 28.1348 29.9685 31.8154 27.4216 35.0461L25.2239 44.3453C27.4216 46.9782 33.8977 48.141 39.659 49.1759C39.8857 49.2161 40.1106 49.2563 40.3337 49.2966C40.6573 49.2582 40.9919 49.2929 41.321 49.4081C41.4179 49.4428 41.5112 49.4812 41.5989 49.5251C47.4552 50.6002 52.3791 51.7375 54.6445 54.7305C60.0967 61.9362 62.3657 69.7928 60.8665 76.2872L60.7878 76.5944C59.5208 82.0905 58.7565 85.4072 55.7598 88.2229C53.2604 90.5743 49.8139 89.2487 46.1644 87.8445C44.4622 87.1899 42.7033 86.5116 40.9389 86.1331L39.1087 85.729C24.0574 82.3941 17.8189 81.2586 15.2829 80.9277C15.3872 81.9333 15.6303 83.3265 15.9375 84.5698C16.23 85.7528 15.5243 86.9541 14.3468 87.2722C12.2899 87.8353 9.30045 89.3748 9.04996 90.7955C8.41369 94.3883 5.43159 108.772 5.30726 109.383C5.05494 110.593 3.85917 111.365 2.65975 111.122C1.44753 110.869 0.670465 109.685 0.920954 108.474C0.952036 108.324 4.01641 93.5436 4.64172 90.0166C5.24326 86.6158 8.79582 84.6192 11.1471 83.652C10.147 78.4923 11.2696 77.494 11.8419 76.9875C12.3502 76.5359 12.7397 76.1903 15.2098 76.4335C16.7146 73.371 19.4315 67.5677 20.0623 64.9549C20.7096 62.2745 20.0093 58.497 19.0421 55.2151L16.9468 63.6896C16.7566 64.4612 16.1715 65.0737 15.4109 65.2986C14.6503 65.5272 13.8257 65.3315 13.2443 64.7885C12.8091 64.3826 8.95123 60.7185 7.58177 57.2263C6.28179 53.9078 6.60175 49.452 6.81567 47.5889C5.76984 45.9451 2.93035 40.6483 4.21571 33.2525C5.01654 28.6376 6.87053 24.5384 7.48304 23.2658C7.62382 22.1615 8.15405 19.6401 10.136 17.841C11.5055 16.5995 13.3138 15.9706 15.3597 15.9925C13.9007 13.2006 12.5952 10.6591 12.1162 7.41187C12.0668 7.08094 12.0924 6.74268 12.193 6.42089C13.034 3.70208 16.3544 -1.09744 22.964 0.226314C28.6375 1.36174 34.8485 3.3364 36.4209 3.84835L41.63 3.76242C43.2518 2.63796 47.6381 -0.0351469 51.3077 0.00690597C54.3208 0.0654144 56.6264 0.42378 58.6596 0.740091C60.925 1.09114 62.715 1.37271 64.7609 1.12039C69.1161 0.586503 79.5197 0.502399 82.8802 1.77861C87.5097 3.53752 97.3245 8.40286 100.202 9.8418C102.938 9.04645 110.789 6.82313 113.59 6.61653C120.843 6.08629 139.553 9.40482 145.179 13.6247C147.761 15.561 148.987 17.181 149.159 18.8795C149.335 20.6165 148.316 21.7647 147.826 22.3169C147.757 22.3937 147.689 22.465 147.636 22.5381C147.324 23.0629 146.775 23.9789 132.417 31.8739C134.572 34.185 137.787 37.7503 138.964 39.6646C144.938 49.3862 146.837 58.1771 146.916 58.5482C147.075 59.2997 146.837 60.0804 146.285 60.6161C145.733 61.15 144.941 61.3676 144.199 61.1884L143.243 60.958C144.398 63.4227 145.546 66.6315 145.801 70.0177C146.285 76.4573 145.817 81.7267 145.797 81.9479C145.727 82.7049 145.281 83.3759 144.608 83.7288C143.937 84.0835 143.129 84.0707 142.469 83.6977L142.316 83.6118C143.155 85.5608 143.928 87.7604 144.369 89.98C145.292 94.6351 145.422 98.2389 145.49 100.175C145.506 100.634 145.512 100.969 145.535 101.157C145.631 101.921 145.307 102.764 144.709 103.25C143.709 104.068 142.743 103.896 140.608 103.163C141.972 109.295 140.228 117.104 139.968 118.196C139.752 119.104 138.997 119.785 138.068 119.902C137.977 119.905 137.882 119.913 137.789 119.913ZM47.2797 83.471C47.4461 83.535 47.6125 83.599 47.7752 83.6611C49.2251 84.2188 52.2401 85.3743 52.6936 84.9556C54.6975 83.0724 55.2387 80.7266 56.4235 75.5851L56.493 75.2798C56.8477 73.7476 56.9135 72.0765 56.7087 70.323C55.6391 70.5132 54.085 70.9374 52.3133 71.879C49.0971 73.5885 45.7329 76.8504 44.8845 77.6987C45.7731 80.4998 46.9433 82.8274 47.2797 83.471ZM40.1362 81.3665L41.5514 81.6792C41.2881 81.0118 41.0211 80.2859 40.767 79.518C40.5549 80.1323 40.3428 80.754 40.1362 81.3665ZM30.8608 79.3443C32.3564 79.6643 33.98 80.0153 35.7353 80.3993C39.3555 69.5039 39.8784 69.2205 41.8622 69.5204C42.8276 69.6703 43.8113 70.4784 43.8295 71.9466C43.8314 72.1404 43.8387 72.3361 43.8497 72.5317C45.5172 71.0544 47.8557 69.1785 50.2125 67.9242C52.348 66.7888 54.255 66.2256 55.6976 65.9495C54.7341 63.121 53.169 60.212 51.0663 57.4347C50.9932 57.3396 50.9109 57.2446 50.8176 57.155L44.2245 68.31C43.8588 68.9261 43.2225 69.3321 42.5095 69.3997C41.7927 69.4728 41.0943 69.1913 40.6189 68.6555C40.3282 68.3264 37.763 65.3571 37.3918 62.5195C36.9164 58.8792 37.3369 55.5643 37.7812 53.3922C31.7823 52.3079 25.7834 51.0884 22.4813 47.96C22.1705 48.1867 21.8286 48.4226 21.4629 48.6548C22.8013 51.8801 25.8327 60.1554 24.4176 66.0026C23.7575 68.7378 21.4903 73.7019 20.0057 76.8065C26.0668 66.222 26.6263 66.3847 28.3577 66.8966C29.3542 67.191 30.0728 68.3027 30.0161 69.3394C29.7729 73.7513 30.4713 77.6073 30.8608 79.3443ZM24.4852 78.0151C25.0008 78.1193 25.5402 78.229 26.1015 78.3442C25.9772 77.6165 25.8547 76.7846 25.7541 75.8722C25.3354 76.567 24.9076 77.291 24.4852 78.0151ZM42.1913 54.2021C41.8147 55.9994 41.4307 58.8536 41.8329 61.9399C41.8713 62.2397 41.9957 62.5981 42.173 62.9766L46.7403 55.2516C45.3654 54.8549 43.7985 54.513 42.1913 54.2021ZM11.1307 49.8999C11.0539 51.721 11.1343 54.0065 11.7541 55.5862C12.118 56.5169 12.8311 57.5737 13.6045 58.5519L15.5718 50.5911C13.983 50.5673 12.4197 50.2565 11.1307 49.8999ZM10.4578 44.9615C11.4543 45.3527 13.6593 46.1134 15.7711 46.1134C17.402 46.1134 19.6052 44.6086 20.7937 43.5865L22.9567 34.4354C20.8613 31.0676 18.1115 27.3468 16.9267 26.6959C15.9942 26.1839 13.7325 25.2094 11.8474 24.4232C11.8053 24.5914 11.745 24.7541 11.6664 24.9077C11.6444 24.9498 9.45769 29.2538 8.63126 34.0113C7.65125 39.6537 9.66796 43.6615 10.4578 44.9615ZM14.2554 20.5744C16.0198 21.3168 18.0621 22.209 19.0842 22.7703C21.1338 23.8966 23.774 27.4931 25.5676 30.2064C27.599 27.7545 30.4604 24.5384 32.1973 23.6059C34.3292 22.4632 38.7613 21.8507 42.5095 21.5252C38.8527 20.8322 34.929 21.1723 31.4623 21.474C29.3067 21.6623 27.2717 21.8397 25.5128 21.7446C24.3389 21.6824 23.0664 21.3753 21.717 21.0498C20.6401 20.7884 19.5303 20.5196 18.3418 20.3349C17.541 20.4757 16.5537 20.5214 15.4895 20.4739C15.0288 20.4519 14.6174 20.4848 14.2554 20.5744ZM62.5632 20.6348L60.4935 25.8292C60.4295 25.9883 60.3509 26.1364 60.2576 26.2717C61.6838 25.9225 64.845 24.8401 68.2531 23.5858C66.4887 22.5893 64.2727 21.3424 62.5632 20.6348ZM50.75 22.443C51.7812 23.147 53.7943 24.4104 56.2004 25.3538C56.1383 24.9681 56.1767 24.5603 56.3321 24.1727L57.8953 20.249C55.7726 20.5342 53.0373 21.1065 50.5818 21.708C50.6622 21.9567 50.7171 22.2054 50.75 22.443ZM24.5474 17.1023C24.9972 17.1919 25.4012 17.2541 25.7486 17.2724C25.9278 17.2815 26.1125 17.287 26.3026 17.2888L25.6554 16.5556L24.5474 17.1023ZM16.6414 7.30034C17.0839 9.61874 18.0968 11.555 19.3566 13.963C19.4809 14.1806 19.6107 14.3378 19.7369 14.4822L25.1599 11.8037C25.1928 11.7872 25.2239 11.7708 25.255 11.758L33.6783 7.67516C31.199 6.90358 26.4087 5.4811 22.0864 4.61627C18.543 3.9032 17.1022 6.25268 16.6414 7.30034ZM41.8183 116.274C40.6134 116.274 39.6188 115.318 39.5804 114.106L39.1726 101.331C39.1342 100.095 40.1033 99.0598 41.3411 99.0196C42.5186 99.0104 43.612 99.9502 43.6522 101.188L43.804 105.984C44.038 105.254 44.6414 104.664 45.4422 104.483C46.6508 104.207 47.8483 104.965 48.1226 106.17L49.5689 112.528C49.8431 113.734 49.088 114.934 47.8813 115.208C46.669 115.484 45.4751 114.725 45.2008 113.521L43.857 107.615L44.0599 113.965C44.0983 115.201 43.1293 116.236 41.8915 116.276C41.8677 116.274 41.8439 116.274 41.8183 116.274ZM36.6184 115.696C36.6038 115.696 36.5873 115.696 36.5727 115.696C35.3367 115.671 34.3548 114.649 34.3786 113.411L34.5231 106.258C34.5468 105.022 35.4811 104.028 36.8085 104.064C38.0445 104.09 39.0264 105.112 39.0026 106.35L38.8582 113.502C38.8326 114.724 37.8343 115.696 36.6184 115.696ZM31.0564 114.517C31.0217 114.517 30.987 114.517 30.9522 114.515C29.7162 114.458 28.7618 113.411 28.8185 112.175L29.431 98.7746C29.4858 97.5386 30.5116 96.5714 31.7713 96.6409C33.0073 96.6975 33.9617 97.7452 33.9051 98.9812L33.2926 112.381C33.2377 113.581 32.2467 114.517 31.0564 114.517ZM26.0723 114.468C25.99 114.468 25.9059 114.464 25.8218 114.453C24.5931 114.318 23.7063 113.21 23.8434 111.979L24.5657 105.477C24.7028 104.249 25.809 103.353 27.0395 103.499C28.2681 103.634 29.1549 104.742 29.0178 105.973L28.2956 112.475C28.1694 113.621 27.1985 114.468 26.0723 114.468ZM17.3307 112.807C17.2539 112.807 17.179 112.804 17.1004 112.796C15.8698 112.67 14.9739 111.571 15.1001 110.341L15.1074 110.262C14.6759 111.058 13.7818 111.542 12.8329 111.416C11.6079 111.248 10.7485 110.118 10.9167 108.893L11.7267 102.978L10.2604 110.443C10.0227 111.659 8.84701 112.445 7.63114 112.21C6.41709 111.97 5.62722 110.794 5.86491 109.58L8.14674 97.9774C8.38443 96.7633 9.55826 95.9771 10.776 96.2112C11.5805 96.3702 12.2003 96.9407 12.4562 97.6629L12.9243 94.2347C13.0925 93.0097 14.2243 92.1631 15.4475 92.3185C16.6725 92.4867 17.5319 93.6167 17.3636 94.8417L16.2812 102.751C16.742 102.217 17.4404 101.903 18.2065 101.985C19.0019 102.066 19.6564 102.556 19.9874 103.221L20.759 96.5074C20.8997 95.2787 22.0077 94.3828 23.2382 94.5382C24.4669 94.679 25.35 95.7906 25.2074 97.0175L23.646 110.61C23.5034 111.838 22.3807 112.729 21.1667 112.579C20.3896 112.491 19.7533 112.014 19.4224 111.365C19.0988 112.219 18.2705 112.807 17.3307 112.807ZM86.2171 69.0231C85.6576 69.0231 85.0981 68.8146 84.6629 68.3977C83.7725 67.5402 83.7451 66.1232 84.6008 65.231C84.652 65.1761 89.8574 59.7166 92.4098 53.6317C94.805 47.9216 92.3641 39.9992 92.3385 39.9188C91.9692 38.7395 92.6237 37.4815 93.8012 37.1104C94.9787 36.7392 96.2366 37.3901 96.6096 38.5676C96.7321 38.9534 99.5771 48.1191 96.5401 55.3632C93.6568 62.2379 88.0619 68.0906 87.826 68.3374C87.389 68.7927 86.8021 69.0231 86.2171 69.0231ZM121.801 51.1304C121.763 51.1304 121.724 51.1304 121.686 51.1286C120.45 51.0646 119.499 50.0133 119.561 48.7773C119.984 40.4563 109.845 31.3254 105.903 28.5096C104.896 27.7911 104.664 26.3924 105.382 25.3868C106.099 24.3793 107.498 24.1453 108.505 24.8657C109.165 25.3374 124.666 36.5582 124.035 49.0059C123.975 50.2016 122.984 51.1304 121.801 51.1304ZM123.154 29.5098C122.426 29.5098 121.713 29.1587 121.284 28.5078C120.602 27.4784 120.876 26.0962 121.904 25.4124C122.28 25.16 124.752 23.6955 127.049 22.3407C124.162 21.1614 120.924 19.8632 119.854 19.5231C114.756 17.905 108.98 20.3386 108.922 20.3623C107.787 20.8487 106.47 20.3258 105.98 19.194C105.49 18.0604 106.008 16.7458 107.141 16.2521C107.437 16.1223 114.489 13.1164 121.209 15.2538C123.423 15.9578 132.537 19.7571 132.925 19.9199C133.708 20.2472 134.24 20.9877 134.296 21.8342C134.355 22.6807 133.927 23.4871 133.196 23.9167C130.044 25.7671 124.864 28.8223 124.385 29.1386C124.006 29.3909 123.578 29.5098 123.154 29.5098Z" fill="white"/>
</g>
</g>
</g>
</g>
<defs>
<clipPath id="clip0_64_28">
<rect width="997.04" height="119.913" fill="white" transform="translate(0.874023)"/>
</clipPath>
<clipPath id="clip1_64_28">
<rect width="997.04" height="119.913" fill="white" transform="translate(0.874023)"/>
</clipPath>
<clipPath id="clip2_64_28">
<rect width="828.251" height="86.7674" fill="white" transform="translate(169.663 16.5726)"/>
</clipPath>
<clipPath id="clip3_64_28">
<rect width="828.251" height="86.7674" fill="white" transform="translate(169.663 16.5726)"/>
</clipPath>
<clipPath id="clip4_64_28">
<rect width="828.251" height="86.7674" fill="white" transform="translate(169.663 16.5726)"/>
</clipPath>
<clipPath id="clip5_64_28">
<rect width="828.251" height="86.7674" fill="white" transform="translate(169.663 16.5726)"/>
</clipPath>
<clipPath id="clip6_64_28">
<rect width="148.305" height="119.913" fill="white" transform="translate(0.874023)"/>
</clipPath>
<clipPath id="clip7_64_28">
<rect width="148.305" height="119.913" fill="white" transform="translate(0.874023)"/>
</clipPath>
</defs>
</svg>
