<svg width="998" height="120" viewBox="0 0 998 120" fill="none" xmlns="http://www.w3.org/2000/svg">
<g clip-path="url(#clip0_71_7)">
<g clip-path="url(#clip1_71_7)">
<g clip-path="url(#clip2_71_7)">
<g clip-path="url(#clip3_71_7)">
<g clip-path="url(#clip4_71_7)">
<path d="M196.012 83.9471C191.763 83.9471 188.012 83.2794 184.759 81.9441C181.517 80.6087 178.774 78.7696 176.528 76.4267C174.282 74.0959 172.583 71.4434 171.429 68.4692C170.276 65.495 169.699 62.3691 169.699 59.0914C169.699 54.7212 170.719 50.6362 172.759 46.8365C174.786 43.049 177.76 40.002 181.681 37.6954C185.59 35.3889 190.367 34.2357 196.012 34.2357C201.778 34.2357 206.634 35.4496 210.579 37.8775C214.525 40.3054 217.469 43.4314 219.411 47.2553L202.567 52.3539C201.778 51.2007 200.825 50.3206 199.708 49.7136C198.579 49.1066 197.317 48.8031 195.921 48.8031C194.343 48.8031 192.916 49.2098 191.642 50.0232C190.367 50.8486 189.353 52.0201 188.601 53.5375C187.836 55.055 187.454 56.9063 187.454 59.0914C187.454 61.2158 187.836 63.0489 188.601 64.5906C189.353 66.1445 190.367 67.3281 191.642 68.1414C192.916 68.9669 194.343 69.3797 195.921 69.3797C196.892 69.3797 197.772 69.2401 198.561 68.9608C199.35 68.6938 200.097 68.2871 200.801 67.7408C201.493 67.1945 202.082 66.5572 202.567 65.8288L219.411 70.9274C218.136 73.4767 216.394 75.7226 214.185 77.6649C211.963 79.6072 209.353 81.1368 206.355 82.2536C203.344 83.3826 199.897 83.9471 196.012 83.9471ZM273.037 51.5345V83.0366H255.738V56.0869C255.738 53.7196 255.204 52.0019 254.136 50.9336C253.08 49.8775 251.763 49.3494 250.185 49.3494C249.456 49.3494 248.558 49.6225 247.49 50.1688C246.434 50.7151 245.42 51.5042 244.449 52.536C243.478 53.5679 242.719 54.7818 242.173 56.1779V83.0366H224.874V16.5726H242.173V42.2478C243.872 39.6378 246.1 37.6469 248.855 36.2751C251.623 34.9155 254.676 34.2357 258.015 34.2357C261.414 34.2357 264.115 34.7941 266.118 35.9109C268.121 37.0399 269.608 38.4845 270.579 40.2447C271.55 42.005 272.2 43.8866 272.527 45.8896C272.867 47.8927 273.037 49.7743 273.037 51.5345ZM278.773 68.5602C278.773 65.3433 279.653 62.5026 281.414 60.0383C283.174 57.5861 285.614 55.662 288.734 54.2659C291.866 52.8699 295.435 52.1718 299.441 52.1718C301.322 52.1718 303.095 52.3236 304.758 52.6271C306.433 52.9306 307.878 53.3858 309.092 53.9928V52.536C309.092 50.2902 308.436 48.621 307.125 47.5285C305.814 46.4359 303.708 45.8896 300.807 45.8896C298.136 45.8896 295.629 46.3267 293.286 47.2007C290.955 48.0869 288.515 49.3798 285.966 51.0793L280.958 40.3358C284.175 38.2721 287.556 36.7364 291.101 35.7288C294.658 34.7334 298.47 34.2357 302.536 34.2357C310.124 34.2357 315.993 35.9473 320.145 39.3707C324.309 42.8062 326.391 47.8927 326.391 54.6301V63.9169C326.391 65.5557 326.633 66.6907 327.119 67.322C327.605 67.9654 328.454 68.3478 329.668 68.4692V83.0366C328.272 83.3401 326.949 83.5708 325.699 83.7286C324.448 83.8743 323.344 83.9471 322.385 83.9471C319.289 83.9471 316.934 83.3826 315.319 82.2536C313.705 81.1368 312.661 79.4858 312.187 77.3007L311.823 75.5708C309.699 78.3022 307.241 80.3781 304.448 81.7984C301.656 83.2309 298.682 83.9471 295.526 83.9471C292.37 83.9471 289.511 83.2794 286.949 81.9441C284.412 80.6087 282.415 78.7696 280.958 76.4267C279.502 74.0959 278.773 71.4737 278.773 68.5602ZM306.816 69.7438C307.483 69.2583 308.03 68.7241 308.454 68.1414C308.879 67.5709 309.092 66.9821 309.092 66.3751V62.8243C308.121 62.4601 307.01 62.1566 305.759 61.9138C304.521 61.671 303.41 61.5496 302.427 61.5496C300.376 61.5496 298.634 62.0656 297.201 63.0974C295.781 64.1293 295.071 65.4343 295.071 67.0124C295.071 67.8622 295.313 68.6331 295.799 69.325C296.272 70.0291 296.94 70.5754 297.802 70.9639C298.652 71.3645 299.623 71.5648 300.716 71.5648C301.747 71.5648 302.822 71.3948 303.939 71.0549C305.055 70.7271 306.014 70.2901 306.816 69.7438ZM335.568 70.108V16.5726H352.867V64.0079C352.867 65.7681 353.249 67.1217 354.014 68.0686C354.767 69.0033 355.872 69.4707 357.328 69.4707C358.057 69.4707 358.846 69.3493 359.696 69.1065C360.545 68.8637 361.334 68.5299 362.063 68.105L364.248 80.8515C362.184 81.8227 359.865 82.5814 357.292 83.1277C354.706 83.674 352.26 83.9471 349.954 83.9471C345.34 83.9471 341.79 82.7453 339.301 80.3417C336.812 77.9502 335.568 74.539 335.568 70.108ZM367.89 70.108V16.5726H385.189V64.0079C385.189 65.7681 385.571 67.1217 386.336 68.0686C387.088 69.0033 388.193 69.4707 389.65 69.4707C390.378 69.4707 391.167 69.3493 392.017 69.1065C392.867 68.8637 393.656 68.5299 394.384 68.105L396.569 80.8515C394.506 81.8227 392.187 82.5814 389.613 83.1277C387.028 83.674 384.582 83.9471 382.275 83.9471C377.662 83.9471 374.111 82.7453 371.623 80.3417C369.134 77.9502 367.89 74.539 367.89 70.108ZM424.156 83.9471C419.968 83.9471 416.235 83.2916 412.958 81.9805C409.68 80.6816 406.93 78.9092 404.709 76.6634C402.5 74.4176 400.818 71.8379 399.665 68.9244C398.512 66.0109 397.935 62.9457 397.935 59.7287C397.935 55.1157 398.937 50.879 400.94 47.0186C402.943 43.1704 405.886 40.0748 409.771 37.7319C413.656 35.4011 418.451 34.2357 424.156 34.2357C429.862 34.2357 434.657 35.3889 438.542 37.6954C442.427 40.002 445.37 43.0368 447.373 46.8001C449.376 50.5634 450.378 54.6605 450.378 59.0914C450.378 60.0019 450.329 60.9245 450.232 61.8592C450.147 62.8061 450.044 63.6437 449.923 64.3721H416.326C416.448 66.0716 416.915 67.4495 417.729 68.5056C418.554 69.5739 419.586 70.3508 420.824 70.8364C422.075 71.322 423.367 71.5648 424.703 71.5648C426.584 71.5648 428.357 71.1399 430.02 70.2901C431.695 69.4404 432.806 68.2567 433.352 66.7393L448.011 70.9274C446.736 73.4767 444.958 75.7226 442.675 77.6649C440.405 79.6072 437.722 81.1368 434.627 82.2536C431.531 83.3826 428.041 83.9471 424.156 83.9471ZM415.962 53.9928H431.804C431.622 52.4146 431.179 51.0793 430.475 49.9867C429.783 48.8942 428.873 48.0444 427.744 47.4374C426.627 46.8305 425.34 46.527 423.883 46.527C422.427 46.527 421.134 46.8305 420.005 47.4374C418.888 48.0444 417.977 48.8942 417.273 49.9867C416.581 51.0793 416.144 52.4146 415.962 53.9928ZM504.186 51.5345V83.0366H486.888V56.0869C486.888 53.7196 486.353 52.0019 485.285 50.9336C484.229 49.8775 483.003 49.3494 481.607 49.3494C480.636 49.3494 479.604 49.6347 478.511 50.2052C477.419 50.7879 476.417 51.5952 475.507 52.6271C474.596 53.6589 473.868 54.8425 473.322 56.1779V83.0366H456.023V35.1461H471.592V42.2478C472.745 40.4875 474.202 39.0126 475.962 37.8229C477.722 36.6454 479.756 35.7531 482.062 35.1461C484.369 34.5392 486.888 34.2357 489.619 34.2357C492.897 34.2357 495.507 34.8123 497.449 35.9656C499.391 37.1188 500.848 38.6059 501.819 40.4268C502.79 42.2478 503.428 44.1415 503.731 46.1081C504.035 48.0869 504.186 49.8957 504.186 51.5345ZM530.936 83.0366C527.84 83.0366 525.006 82.4297 522.432 81.2157C519.846 80.0018 517.643 78.3022 515.822 76.1171C514.001 73.932 512.593 71.3827 511.598 68.4692C510.59 65.5557 510.086 62.3994 510.086 59.0003C510.086 55.4192 510.633 52.1233 511.725 49.1127C512.818 46.1142 514.353 43.4921 516.332 41.2463C518.299 39.0004 520.648 37.2706 523.379 36.0566C526.11 34.8426 529.115 34.2357 532.393 34.2357C535.792 34.2357 538.815 34.9155 541.461 36.2751C544.095 37.6469 546.171 39.6378 547.689 42.2478V35.1461H562.711V78.6664C562.711 83.6436 561.497 87.9835 559.069 91.6861C556.641 95.3886 553.242 98.2536 548.872 100.281C544.502 102.32 539.403 103.34 533.576 103.34C528.538 103.34 524.126 102.551 520.338 100.973C516.538 99.3947 513.182 97.1185 510.268 94.1443L519.373 84.6755C521.133 86.3143 523.246 87.6982 525.71 88.8272C528.162 89.944 530.784 90.5025 533.576 90.5025C535.701 90.5025 537.661 90.1079 539.458 89.3189C541.242 88.5298 542.681 87.2733 543.774 85.5495C544.866 83.8136 545.412 81.5192 545.412 78.6664V75.5708C544.077 78.0594 542.092 79.9229 539.458 81.1611C536.811 82.4115 533.971 83.0366 530.936 83.0366ZM537.127 69.3797C537.977 69.3797 538.784 69.2704 539.549 69.0519C540.302 68.8455 541.012 68.542 541.679 68.1414C542.347 67.753 543.003 67.237 543.646 66.5936C544.277 65.9624 544.866 65.2522 545.412 64.4631V55.9048C544.866 54.448 544.107 53.1855 543.136 52.1172C542.165 51.0611 541.103 50.2477 539.95 49.6772C538.796 49.0945 537.613 48.8031 536.399 48.8031C535.185 48.8031 534.05 49.0763 532.994 49.6225C531.925 50.1688 530.997 50.9458 530.208 51.9533C529.418 52.9488 528.811 54.0838 528.387 55.3585C527.962 56.6331 527.749 57.9988 527.749 59.4556C527.749 60.9123 527.98 62.2477 528.441 63.4616C528.89 64.6756 529.54 65.7196 530.39 66.5936C531.239 67.4798 532.241 68.1657 533.394 68.6513C534.547 69.1369 535.792 69.3797 537.127 69.3797ZM595.033 83.9471C590.845 83.9471 587.112 83.2916 583.834 81.9805C580.556 80.6816 577.813 78.9092 575.603 76.6634C573.382 74.4176 571.694 71.8379 570.541 68.9244C569.388 66.0109 568.811 62.9457 568.811 59.7287C568.811 55.1157 569.813 50.879 571.816 47.0186C573.819 43.1704 576.763 40.0748 580.647 37.7319C584.532 35.4011 589.327 34.2357 595.033 34.2357C600.738 34.2357 605.533 35.3889 609.418 37.6954C613.303 40.002 616.247 43.0368 618.25 46.8001C620.253 50.5634 621.254 54.6605 621.254 59.0914C621.254 60.0019 621.212 60.9245 621.127 61.8592C621.03 62.8061 620.92 63.6437 620.799 64.3721H587.203C587.324 66.0716 587.798 67.4495 588.623 68.5056C589.436 69.5739 590.468 70.3508 591.719 70.8364C592.957 71.322 594.244 71.5648 595.579 71.5648C597.461 71.5648 599.239 71.1399 600.914 70.2901C602.577 69.4404 603.682 68.2567 604.228 66.7393L618.887 70.9274C617.612 73.4767 615.84 75.7226 613.57 77.6649C611.288 79.6072 608.599 81.1368 605.503 82.2536C602.408 83.3826 598.917 83.9471 595.033 83.9471ZM586.839 53.9928H602.681C602.499 52.4146 602.062 51.0793 601.37 49.9867C600.665 48.8942 599.755 48.0444 598.638 47.4374C597.509 46.8305 596.216 46.527 594.76 46.527C593.303 46.527 592.016 46.8305 590.899 47.4374C589.77 48.0444 588.86 48.8942 588.168 49.9867C587.464 51.0793 587.021 52.4146 586.839 53.9928ZM704.107 51.5345V83.0366H686.808V56.0869C686.808 53.7196 686.334 52.0019 685.387 50.9336C684.453 49.8775 683.318 49.3494 681.982 49.3494C680.647 49.3494 679.19 49.9867 677.612 51.2614C676.034 52.536 674.881 54.1749 674.152 56.1779V83.0366H656.853V56.0869C656.853 53.7196 656.38 52.0019 655.433 50.9336C654.498 49.8775 653.363 49.3494 652.028 49.3494C650.693 49.3494 649.236 49.9867 647.658 51.2614C646.079 52.536 644.926 54.1749 644.198 56.1779V83.0366H626.899V35.1461H642.468V42.2478C644.168 39.6378 646.504 37.6469 649.479 36.2751C652.453 34.9155 655.973 34.2357 660.04 34.2357C663.985 34.2357 666.96 35.0854 668.963 36.785C670.966 38.4845 672.301 40.3965 672.969 42.5209C674.668 39.9109 677.005 37.8775 679.979 36.4208C682.953 34.964 686.292 34.2357 689.994 34.2357C693.151 34.2357 695.67 34.8123 697.551 35.9656C699.433 37.1188 700.841 38.6059 701.776 40.4268C702.723 42.2478 703.348 44.1415 703.651 46.1081C703.955 48.0869 704.107 49.8957 704.107 51.5345ZM744.986 34.3267V49.8957C741.648 49.8957 738.613 50.2599 735.882 50.9882C733.15 51.7166 731.117 52.9306 729.782 54.6301V83.0366H712.483V35.1461H728.325V44.2508C730.024 41.0338 732.149 38.5574 734.698 36.8214C737.247 35.0976 739.949 34.2357 742.801 34.2357C743.469 34.2357 743.936 34.2357 744.203 34.2357C744.483 34.2357 744.744 34.266 744.986 34.3267ZM780.841 83.9471C777.259 83.9471 774.164 83.2309 771.554 81.7984C768.944 80.3781 766.88 78.3022 765.363 75.5708V83.0366H750.34V16.5726H767.639V42.2478C769.035 39.6378 771.008 37.6469 773.557 36.2751C776.106 34.9155 779.111 34.2357 782.57 34.2357C785.484 34.2357 788.185 34.8548 790.674 36.093C793.162 37.3434 795.335 39.0915 797.193 41.3373C799.038 43.5831 800.476 46.2356 801.508 49.2948C802.54 52.3661 803.056 55.6923 803.056 59.2735C803.056 62.794 802.498 66.0534 801.381 69.0519C800.252 72.0625 798.704 74.6907 796.737 76.9365C794.759 79.1823 792.422 80.9122 789.727 82.1262C787.02 83.3401 784.058 83.9471 780.841 83.9471ZM775.833 69.3797C777.229 69.3797 778.504 69.1369 779.657 68.6513C780.81 68.1657 781.812 67.4798 782.662 66.5936C783.511 65.7196 784.167 64.6756 784.628 63.4616C785.077 62.2477 785.302 60.882 785.302 59.3645C785.302 57.4222 784.926 55.6438 784.173 54.0292C783.408 52.4268 782.376 51.1521 781.077 50.2052C779.766 49.2705 778.261 48.8031 776.561 48.8031C775.347 48.8031 774.164 49.1066 773.011 49.7136C771.857 50.3206 770.813 51.1521 769.879 52.2083C768.932 53.2765 768.185 54.5087 767.639 55.9048V64.4631C768.185 65.2522 768.78 65.9624 769.423 66.5936C770.055 67.237 770.704 67.753 771.372 68.1414C772.039 68.542 772.756 68.8455 773.52 69.0519C774.273 69.2704 775.044 69.3797 775.833 69.3797ZM832.828 83.9471C828.64 83.9471 824.907 83.2916 821.629 81.9805C818.352 80.6816 815.608 78.9092 813.399 76.6634C811.177 74.4176 809.49 71.8379 808.337 68.9244C807.183 66.0109 806.607 62.9457 806.607 59.7287C806.607 55.1157 807.608 50.879 809.611 47.0186C811.614 43.1704 814.558 40.0748 818.443 37.7319C822.328 35.4011 827.123 34.2357 832.828 34.2357C838.534 34.2357 843.329 35.3889 847.214 37.6954C851.098 40.002 854.042 43.0368 856.045 46.8001C858.048 50.5634 859.05 54.6605 859.05 59.0914C859.05 60.0019 859.007 60.9245 858.922 61.8592C858.825 62.8061 858.716 63.6437 858.594 64.3721H824.998C825.12 66.0716 825.593 67.4495 826.419 68.5056C827.232 69.5739 828.264 70.3508 829.514 70.8364C830.752 71.322 832.039 71.5648 833.375 71.5648C835.256 71.5648 837.035 71.1399 838.71 70.2901C840.373 69.4404 841.478 68.2567 842.024 66.7393L856.682 70.9274C855.408 73.4767 853.635 75.7226 851.365 77.6649C849.083 79.6072 846.394 81.1368 843.299 82.2536C840.203 83.3826 836.713 83.9471 832.828 83.9471ZM824.634 53.9928H840.476C840.294 52.4146 839.857 51.0793 839.165 49.9867C838.461 48.8942 837.551 48.0444 836.434 47.4374C835.305 46.8305 834.012 46.527 832.555 46.527C831.098 46.527 829.812 46.8305 828.695 47.4374C827.566 48.0444 826.655 48.8942 825.963 49.9867C825.259 51.0793 824.816 52.4146 824.634 53.9928ZM862.054 68.5602C862.054 65.3433 862.934 62.5026 864.695 60.0383C866.455 57.5861 868.895 55.662 872.015 54.2659C875.147 52.8699 878.716 52.1718 882.722 52.1718C884.603 52.1718 886.376 52.3236 888.039 52.6271C889.714 52.9306 891.159 53.3858 892.373 53.9928V52.536C892.373 50.2902 891.717 48.621 890.406 47.5285C889.107 46.4359 887.001 45.8896 884.087 45.8896C881.417 45.8896 878.91 46.3267 876.567 47.2007C874.236 48.0869 871.796 49.3798 869.247 51.0793L864.239 40.3358C867.456 38.2721 870.837 36.7364 874.382 35.7288C877.939 34.7334 881.751 34.2357 885.817 34.2357C893.405 34.2357 899.274 35.9473 903.426 39.3707C907.59 42.8062 909.672 47.8927 909.672 54.6301V63.9169C909.672 65.5557 909.914 66.6907 910.4 67.322C910.885 67.9654 911.735 68.3478 912.949 68.4692V83.0366C911.553 83.3401 910.23 83.5708 908.98 83.7286C907.741 83.8743 906.637 83.9471 905.665 83.9471C902.57 83.9471 900.215 83.3826 898.6 82.2536C896.998 81.1368 895.954 79.4858 895.468 77.3007L895.104 75.5708C892.98 78.3022 890.521 80.3781 887.729 81.7984C884.937 83.2309 881.963 83.9471 878.807 83.9471C875.65 83.9471 872.798 83.2794 870.248 81.9441C867.699 80.6087 865.696 78.7696 864.239 76.4267C862.783 74.0959 862.054 71.4737 862.054 68.5602ZM890.097 69.7438C890.764 69.2583 891.31 68.7241 891.735 68.1414C892.16 67.5709 892.373 66.9821 892.373 66.3751V62.8243C891.402 62.4601 890.291 62.1566 889.04 61.9138C887.802 61.671 886.697 61.5496 885.726 61.5496C883.663 61.5496 881.914 62.0656 880.482 63.0974C879.062 64.1293 878.352 65.4343 878.352 67.0124C878.352 67.8622 878.594 68.6331 879.08 69.325C879.565 70.0291 880.233 70.5754 881.083 70.9639C881.933 71.3645 882.904 71.5648 883.996 71.5648C885.028 71.5648 886.103 71.3948 887.219 71.0549C888.348 70.7271 889.307 70.2901 890.097 69.7438ZM938.442 83.9471C934.254 83.9471 930.139 83.2612 926.096 81.8895C922.066 80.5298 918.655 78.545 915.863 75.935L921.781 65.2826C924.755 67.2249 927.62 68.7423 930.376 69.8349C933.143 70.9274 935.65 71.4737 937.896 71.4737C939.171 71.4737 940.111 71.3038 940.718 70.9639C941.325 70.6361 941.629 70.0777 941.629 69.2886C941.629 68.7423 941.416 68.2871 940.992 67.9229C940.567 67.5587 939.881 67.1945 938.934 66.8303C937.999 66.4662 936.803 66.0716 935.347 65.6467C931.583 64.3114 928.439 63.0671 925.914 61.9138C923.401 60.7606 921.52 59.3463 920.269 57.6711C919.031 56.0079 918.412 53.7803 918.412 50.9882C918.412 47.7106 919.231 44.8092 920.87 42.2842C922.509 39.7713 924.858 37.7865 927.917 36.3297C930.989 34.873 934.679 34.1446 938.989 34.1446C942.206 34.1446 945.435 34.6423 948.676 35.6378C951.929 36.6454 955.073 38.4542 958.108 41.0642L951.553 51.6256C948.518 49.7439 945.951 48.4086 943.85 47.6195C941.762 46.8304 939.899 46.4359 938.26 46.4359C937.471 46.4359 936.785 46.527 936.203 46.7091C935.632 46.8911 935.195 47.1643 934.891 47.5285C934.588 47.8927 934.436 48.3782 934.436 48.9852C934.436 49.5922 934.649 50.0899 935.074 50.4784C935.498 50.879 936.166 51.2432 937.077 51.5709C937.987 51.9108 939.14 52.2932 940.536 52.7181C944.664 53.9321 948.033 55.1582 950.643 56.3964C953.253 57.6468 955.177 59.1521 956.415 60.9123C957.665 62.6726 958.29 64.9791 958.29 67.8319C958.29 72.8698 956.512 76.8151 952.955 79.6679C949.41 82.5207 944.573 83.9471 938.442 83.9471ZM994.782 66.7393L997.878 80.3963C996.299 81.064 994.618 81.6831 992.833 82.2536C991.037 82.8363 989.216 83.2794 987.371 83.5829C985.513 83.8864 983.705 84.0382 981.944 84.0382C979.334 84.0382 976.937 83.5951 974.752 82.7089C972.567 81.8348 970.825 80.3781 969.526 78.3386C968.214 76.3113 967.559 73.5678 967.559 70.108V48.1658H961.641V35.1461H967.559V20.1235H984.858V35.1461H994.236V48.1658H984.858V64.0079C984.858 65.586 985.192 66.6907 985.859 67.322C986.527 67.9654 987.438 68.2871 988.591 68.2871C989.44 68.2871 990.412 68.1353 991.504 67.8319C992.597 67.5284 993.689 67.1642 994.782 66.7393Z" fill="white"/>
</g>
</g>
</g>
</g>
</g>
<g clip-path="url(#clip5_71_7)">
<g clip-path="url(#clip6_71_7)">
<path d="M12.3912 119.91C13.2159 119.91 13.9838 119.455 14.3733 118.712C15.7885 116.016 17.4414 113.048 18.8182 110.746C19.7288 114.686 21.4695 118.105 21.5737 118.31C21.9723 119.085 22.7677 119.561 23.6618 119.522C24.5339 119.486 25.3055 118.945 25.6383 118.137C25.6621 118.076 27.7008 113.13 30.0961 108.304C30.7689 111.657 32.4401 116.915 32.5114 117.138C32.7857 118.003 33.5555 118.616 34.4606 118.69C35.3565 118.762 36.2232 118.288 36.6382 117.48L42.9135 105.252C45.8353 113.074 47.2103 113.136 48.3494 113.189C49.2088 113.242 50.3132 112.811 50.8654 111.522C52.2166 108.369 55.3615 103.415 58.2139 99.3703C57.4423 103.065 56.9376 106.307 56.9029 106.541C56.753 107.506 57.2466 108.455 58.1225 108.891C58.9965 109.322 60.0515 109.143 60.7298 108.437C60.8158 108.349 68.7713 100.124 74.2475 96.3261L68.6232 101.246C67.6926 102.06 67.5975 103.475 68.413 104.407C69.2266 105.338 70.6437 105.431 71.5743 104.618L76.7891 100.054L74.6699 102.201C73.8014 103.08 73.8105 104.499 74.6918 105.367C75.5732 106.236 76.9902 106.227 77.8587 105.345L79.358 103.824C79.199 104.607 79.4641 105.451 80.1205 105.996C81.0731 106.784 82.4847 106.654 83.2746 105.704L83.536 105.389L83.4409 105.557C82.8321 106.634 83.2124 108 84.2875 108.609C85.3626 109.214 86.7303 108.839 87.3392 107.762L87.4233 107.611C87.1929 108.583 87.6372 109.627 88.5642 110.112C89.4163 110.558 90.4201 110.403 91.0966 109.799C91.082 110.664 91.572 111.498 92.4095 111.878C93.5358 112.39 94.8632 111.891 95.3752 110.766L96.2821 108.774L95.558 110.83C95.1485 111.997 95.761 113.275 96.9276 113.686C98.0996 114.09 99.374 113.483 99.7854 112.315L103.415 101.996C103.824 100.828 103.212 99.5495 102.044 99.1381C100.881 98.7249 99.5989 99.3411 99.1875 100.509L97.7138 104.7C97.5949 103.989 97.136 103.351 96.4302 103.029C95.9164 102.795 95.3588 102.775 94.8559 102.923L95.7153 101.283C96.2876 100.186 95.8652 98.8328 94.77 98.2605C93.6711 97.6864 92.3199 98.1088 91.7476 99.2058L90.0124 102.521C90.0398 101.714 89.6284 100.919 88.8751 100.495C88.546 100.308 88.1912 100.215 87.8402 100.206L88.4637 99.4544C89.2536 98.5019 89.1238 97.0904 88.1711 96.3005C87.2185 95.5089 85.807 95.6405 85.0171 96.5931L81.9928 100.233C81.9928 99.6556 81.7697 99.076 81.3254 98.6353C80.6873 98.0064 79.7676 97.8382 78.9814 98.1271L80.285 96.9843C81.2157 96.1707 81.3108 94.7556 80.4953 93.8231C79.6817 92.8907 78.2664 92.7974 77.3339 93.6129L76.2424 94.5673C76.5203 93.92 76.4929 93.154 76.0961 92.5067C75.4506 91.4518 74.0702 91.1208 73.0152 91.7681C69.8611 93.7006 65.7763 97.3043 62.5857 100.312C63.1452 97.6206 63.8437 94.7117 64.5805 92.7225C65.599 89.9726 64.3209 88.9908 63.4688 88.6507C61.8763 88.0145 60.6732 88.0803 54.5186 96.807C52.4909 99.683 50.0609 103.402 48.3074 106.601C47.4041 104.51 46.2997 101.515 45.4422 98.8657C45.1625 98.0046 44.3927 97.3957 43.4913 97.3226C42.588 97.2659 41.7323 97.7285 41.3191 98.533L35.2121 110.434C34.9232 109.355 34.6562 108.278 34.4788 107.379C33.5463 102.689 32.9174 100.61 30.811 100.412C28.8783 100.25 28.1122 102.104 27.7904 102.903C27.7154 103.086 27.6459 103.274 27.5655 103.422C26.132 106.086 24.7369 109.04 23.6435 111.459C23.0639 109.58 22.6342 107.516 22.7677 105.823C22.945 103.57 21.4603 102.961 20.9996 102.828C19.5807 102.42 18.4909 102.104 13.6236 110.686C13.3786 106.985 13.6547 103.181 15.1065 101.29C15.9421 100.204 15.6843 99.054 15.2107 98.3995C14.0624 96.8198 12.4516 97.3847 9.23899 98.5147C9.34504 96.6114 9.57725 93.9731 10.1989 90.8374C11.3454 85.0653 15.2637 79.1854 15.3039 79.1269C15.8836 78.2657 15.794 77.1193 15.09 76.3569C14.3861 75.5945 13.2506 75.4171 12.3474 75.9254L8.66121 78.0024C8.61001 75.9839 8.61916 73.2761 8.8404 70.3398C9.28471 64.4416 13.2049 58.9218 13.2451 58.8669C13.79 58.1063 13.8065 57.0879 13.2835 56.3109C12.7606 55.5357 11.8061 55.1645 10.9011 55.3839L8.63561 55.9288C9.69245 52.6414 11.6836 47.4416 15.0278 41.9986C16.2767 39.9673 21.1989 34.7053 22.9926 32.8514C23.4789 32.3486 23.7002 31.6483 23.5959 30.9572C23.4917 30.2661 23.0675 29.6627 22.4532 29.33C15.3789 25.4703 7.49649 20.9726 6.1727 19.9158C6.03556 19.7256 5.87283 19.5337 5.69913 19.3362C5.6589 19.2923 5.61136 19.2375 5.56748 19.1845C5.75947 18.8864 6.28788 18.2465 7.68299 17.1989C12.0018 13.9609 29.3683 10.5546 36.2561 11.0739C38.335 11.2275 45.349 13.1326 49.5562 14.3777C50.1011 14.5404 50.6898 14.4874 51.1981 14.2296C51.3225 14.1675 63.7596 7.90537 68.8865 5.95635C71.1026 5.11531 80.3088 5.00195 84.8726 5.55594C87.5421 5.87956 89.8058 5.52852 92.2047 5.15736C94.099 4.863 96.2437 4.53024 98.9571 4.47539C101.144 4.47173 104.687 6.45184 106.435 7.74996C106.56 7.84504 106.695 7.93097 106.841 8.00045L120.363 14.4966L118.211 16.9301C114.607 16.6248 110.601 16.3651 106.595 17.166C105.399 17.4055 104.355 17.7072 103.461 18.0783C101.237 17.464 92.3839 15.1182 88.6465 15.6667C88.6081 15.6722 88.5697 15.6777 88.5313 15.685C86.0794 16.0909 82.6657 18.018 79.6524 19.7202C78.2098 20.5356 76.4179 21.5467 75.8273 21.7131C75.8218 21.7149 75.8145 21.7167 75.8072 21.7185C74.8783 21.9343 71.0605 21.2633 69.2284 20.9433C67.2519 20.5978 65.983 20.382 65.151 20.3711C64.9682 20.3637 64.7963 20.382 64.6208 20.4204C64.4452 20.4588 64.277 20.5155 64.1198 20.5923C62.5491 21.3127 39.1322 32.4217 37.472 54.9634C36.929 62.339 40.1726 73.7588 46.3601 79.3499C50.273 82.8841 60.8286 83.0999 62.9057 83.1072H62.913C64.1454 83.1072 65.1474 82.1107 65.1528 80.8766C65.1583 79.6388 64.16 78.6332 62.9221 78.6277C58.4662 78.6094 51.3152 77.7903 49.3624 76.026C44.4164 71.5575 41.48 61.5126 41.9389 55.2925C43.3011 36.8042 62.2474 26.5326 65.5332 24.8852C66.0378 24.9438 66.8039 25.0699 67.5719 25.2016C65.8659 28.7906 62.8801 35.6743 62.8508 39.9673C62.8106 46.0923 72.8945 53.8481 74.9167 55.34C75.9096 56.0732 77.3138 55.8648 78.0489 54.8683C78.7839 53.8737 78.5736 52.4714 77.579 51.7364C73.4339 48.6739 67.3122 42.8232 67.3323 39.9965C67.3561 36.4623 70.4956 29.3812 72.1832 25.964C73.8087 26.1925 75.1234 26.2949 76.1455 26.1907C88.9208 31.1455 90.3232 30.9188 90.9321 30.8255C96.4412 29.9534 101.299 26.635 102.592 25.6897C107.297 25.8835 113.981 26.5417 115.861 27.551C116.947 28.1342 120.215 31.8147 122.762 35.0454L124.959 44.3444C122.762 46.9772 116.285 48.14 110.524 49.1749C110.297 49.2151 110.072 49.2553 109.849 49.2955C109.526 49.2571 109.191 49.2919 108.862 49.4071C108.765 49.4418 108.672 49.4802 108.584 49.5241C102.727 50.5991 97.8034 51.7364 95.5379 54.7294C90.0855 61.9349 87.8164 69.7913 89.3157 76.2856L89.3944 76.5928C90.6615 82.0888 91.4258 85.4054 94.4226 88.2211C96.9221 90.5723 100.369 89.2468 104.018 87.8426C105.721 87.188 107.48 86.5097 109.244 86.1313L111.074 85.7272C126.126 82.3923 132.365 81.2569 134.901 80.926C134.796 81.9316 134.553 83.3248 134.246 84.568C133.954 85.751 134.659 86.9522 135.837 87.2703C137.894 87.8335 140.883 89.3729 141.134 90.7935C141.77 94.3863 144.752 108.77 144.877 109.381C145.129 110.591 146.325 111.362 147.524 111.119C148.737 110.867 149.514 109.682 149.263 108.472C149.232 108.322 146.168 93.5416 145.542 90.0147C144.941 86.614 141.388 84.6174 139.037 83.6502C140.037 78.4906 138.914 77.4923 138.342 76.9859C137.834 76.5343 137.444 76.1887 134.974 76.4319C133.469 73.3694 130.752 67.5662 130.121 64.9535C129.474 62.2731 130.174 58.4958 131.141 55.2139L133.237 63.6883C133.427 64.4599 134.012 65.0723 134.773 65.2972C135.533 65.5258 136.358 65.3301 136.939 64.7871C137.375 64.3812 141.233 60.7172 142.602 57.2251C143.902 53.9066 143.582 49.4509 143.368 47.5878C144.414 45.9442 147.254 40.6474 145.968 33.2518C145.167 28.637 143.313 24.5379 142.701 23.2653C142.56 22.161 142.03 19.6397 140.048 17.8406C138.678 16.5992 136.87 15.9702 134.824 15.9922C136.283 13.2003 137.589 10.6589 138.068 7.41172C138.117 7.08078 138.091 6.74254 137.991 6.42075C137.15 3.702 133.829 -1.09742 127.219 0.226309C121.546 1.36171 115.335 3.33633 113.762 3.84827L108.553 3.76234C106.931 2.6379 102.545 -0.0351462 98.8748 0.00690582C95.8616 0.065413 93.5559 0.423771 91.5227 0.740075C89.2572 1.09112 87.4672 1.37268 85.4212 1.12037C81.0658 0.586491 70.6619 0.502388 67.3013 1.77858C62.6716 3.53745 52.8565 8.40268 49.9786 9.84159C47.2432 9.04626 39.3919 6.82299 36.5907 6.61639C29.3373 6.08616 10.6268 9.40462 5.00067 13.6244C2.4189 15.5607 1.19201 17.1806 1.02014 18.8791C0.844608 20.6161 1.86304 21.7643 2.35307 22.3164C2.42255 22.3932 2.49021 22.4645 2.54323 22.5376C2.8559 23.0624 3.40443 23.9784 17.7632 31.8732C15.6075 34.1842 12.3931 37.7495 11.2155 39.6638C5.24201 49.3851 3.34226 58.1758 3.26364 58.547C3.10456 59.2984 3.34226 60.0791 3.89445 60.6148C4.44664 61.1487 5.23836 61.3663 5.9807 61.1871L6.93699 60.9567C5.78141 63.4213 4.63314 66.6301 4.37899 70.0162C3.89445 76.4556 4.36253 81.7249 4.38264 81.9462C4.45212 82.7031 4.89827 83.3741 5.57113 83.727C6.24217 84.0817 7.05034 84.0689 7.71041 83.6959L7.864 83.61C7.02474 85.559 6.25131 87.7585 5.81066 89.9781C4.88729 94.6331 4.75747 98.2368 4.68982 100.173C4.67336 100.632 4.66788 100.966 4.64411 101.155C4.54903 101.919 4.87267 102.762 5.47057 103.248C6.47073 104.066 7.43615 103.894 9.57178 103.16C8.20776 109.293 9.95209 117.102 10.2117 118.193C10.4275 119.102 11.1826 119.782 12.1115 119.899C12.2029 119.903 12.298 119.91 12.3912 119.91ZM102.903 83.4692C102.737 83.5332 102.57 83.5972 102.407 83.6593C100.957 84.217 97.9423 85.3725 97.4889 84.9538C95.4849 83.0706 94.9437 80.7248 93.7589 75.5835L93.6894 75.2782C93.3347 73.746 93.2688 72.0749 93.4736 70.3215C94.5433 70.5117 96.0974 70.9359 97.8692 71.8775C101.085 73.587 104.45 76.8487 105.298 77.6971C104.41 80.4981 103.239 82.8256 102.903 83.4692ZM110.047 81.3648L108.631 81.6774C108.895 81.0101 109.162 80.2842 109.416 79.5163C109.628 80.1306 109.84 80.7523 110.047 81.3648ZM119.322 79.3426C117.827 79.6626 116.203 80.0136 114.448 80.3976C110.827 69.5024 110.304 69.219 108.321 69.5189C107.355 69.6688 106.371 70.4769 106.353 71.9451C106.351 72.1389 106.344 72.3345 106.333 72.5302C104.666 71.0529 102.327 69.177 99.9701 67.9227C97.8345 66.7873 95.9274 66.2242 94.4847 65.9481C95.4483 63.1197 97.0135 60.2108 99.1162 57.4335C99.1893 57.3384 99.2716 57.2434 99.3649 57.1538L105.958 68.3085C106.324 68.9247 106.96 69.3306 107.673 69.3982C108.39 69.4714 109.089 69.1898 109.564 68.6541C109.855 68.325 112.42 65.3557 112.791 62.5181C113.267 58.8779 112.846 55.5631 112.402 53.391C118.401 52.3068 124.4 51.0873 127.702 47.959C128.013 48.1857 128.355 48.4216 128.721 48.6538C127.382 51.879 124.351 60.1541 125.766 66.0011C126.426 68.7364 128.693 73.7003 130.178 76.8049C124.117 66.2205 123.557 66.3833 121.825 66.8952C120.829 67.1896 120.11 68.3012 120.167 69.3379C120.41 73.7497 119.712 77.6057 119.322 79.3426ZM125.698 78.0134C125.183 78.1176 124.643 78.2273 124.082 78.3425C124.206 77.6148 124.329 76.7829 124.429 75.8706C124.848 76.5653 125.276 77.2894 125.698 78.0134ZM107.991 54.201C108.368 55.9983 108.752 58.8523 108.35 61.9386C108.311 62.2384 108.187 62.5968 108.01 62.9752L103.442 55.2505C104.817 54.8537 106.384 54.5118 107.991 54.201ZM139.053 49.8989C139.13 51.7199 139.049 54.0054 138.43 55.585C138.066 56.5157 137.353 57.5725 136.579 58.5506L134.612 50.59C136.201 50.5662 137.764 50.2554 139.053 49.8989ZM139.726 44.9605C138.729 45.3518 136.524 46.1124 134.412 46.1124C132.782 46.1124 130.578 44.6076 129.39 43.5856L127.227 34.4347C129.322 31.0669 132.072 27.3462 133.257 26.6953C134.189 26.1834 136.451 25.2089 138.336 24.4227C138.378 24.5909 138.439 24.7536 138.517 24.9072C138.539 24.9492 140.726 29.2532 141.553 34.0105C142.533 39.6528 140.516 43.6606 139.726 44.9605ZM135.928 20.574C134.164 21.3163 132.121 22.2085 131.099 22.7698C129.05 23.8961 126.409 27.4925 124.616 30.2057C122.584 27.7539 119.723 24.5379 117.986 23.6054C115.854 22.4627 111.422 21.8502 107.673 21.5247C111.33 20.8318 115.254 21.1719 118.721 21.4735C120.877 21.6619 122.912 21.8392 124.671 21.7441C125.844 21.682 127.117 21.3748 128.466 21.0494C129.543 20.7879 130.653 20.5191 131.842 20.3345C132.643 20.4753 133.63 20.521 134.694 20.4734C135.155 20.4515 135.566 20.4844 135.928 20.574ZM87.6189 20.6343L89.6887 25.8287C89.7527 25.9877 89.8314 26.1358 89.9246 26.2711C88.4984 25.9219 85.337 24.8395 81.9288 23.5853C83.6933 22.5888 85.9093 21.3419 87.6189 20.6343ZM99.4325 22.4426C98.4013 23.1465 96.3882 24.4099 93.9819 25.3533C94.0441 24.9675 94.0057 24.5598 93.8503 24.1722L92.287 20.2486C94.4098 20.5338 97.1451 21.106 99.6007 21.7076C99.5203 21.9562 99.4654 22.2049 99.4325 22.4426ZM125.636 17.102C125.186 17.1916 124.782 17.2537 124.435 17.272C124.255 17.2811 124.071 17.2866 123.881 17.2885L124.528 16.5553L125.636 17.102ZM133.542 7.30019C133.1 9.61853 132.087 11.5548 130.827 13.9627C130.703 14.1803 130.573 14.3375 130.447 14.4819L125.023 11.8034C124.991 11.787 124.959 11.7705 124.928 11.7577L116.505 7.675C118.984 6.90344 123.775 5.48098 128.097 4.61617C131.641 3.90312 133.081 6.25254 133.542 7.30019ZM108.364 116.272C109.569 116.272 110.564 115.315 110.602 114.103L111.01 101.328C111.049 100.093 110.08 99.0577 108.842 99.0175C107.664 99.0083 106.571 99.9481 106.531 101.186L106.379 105.982C106.145 105.252 105.541 104.662 104.74 104.481C103.532 104.204 102.334 104.963 102.06 106.168L100.614 112.525C100.339 113.732 101.095 114.931 102.301 115.206C103.514 115.482 104.708 114.723 104.982 113.518L106.326 107.613L106.123 113.962C106.084 115.198 107.053 116.233 108.291 116.273C108.315 116.272 108.339 116.272 108.364 116.272ZM113.565 115.694C113.579 115.694 113.596 115.694 113.61 115.694C114.846 115.668 115.828 114.646 115.804 113.408L115.66 106.256C115.636 105.02 114.702 104.025 113.374 104.062C112.138 104.087 111.157 105.11 111.18 106.347L111.325 113.5C111.35 114.721 112.349 115.694 113.565 115.694ZM119.127 114.515C119.161 114.515 119.196 114.515 119.231 114.513C120.467 114.456 121.421 113.408 121.365 112.172L120.752 98.7725C120.697 97.5365 119.672 96.5693 118.412 96.6388C117.176 96.6955 116.221 97.7431 116.278 98.9791L116.891 112.379C116.945 113.578 117.936 114.515 119.127 114.515ZM124.111 114.465C124.193 114.465 124.277 114.462 124.362 114.451C125.59 114.315 126.477 113.207 126.34 111.977L125.618 105.475C125.481 104.247 124.374 103.351 123.144 103.497C121.915 103.632 121.028 104.74 121.165 105.971L121.888 112.472C122.014 113.619 122.985 114.465 124.111 114.465ZM132.853 112.805C132.93 112.805 133.005 112.801 133.083 112.794C134.314 112.668 135.21 111.569 135.084 110.339L135.076 110.26C135.508 111.055 136.402 111.54 137.351 111.414C138.576 111.245 139.435 110.116 139.267 108.891L138.457 102.976L139.923 110.441C140.161 111.657 141.337 112.443 142.553 112.207C143.767 111.968 144.557 110.792 144.319 109.578L142.037 97.9753C141.799 96.7613 140.626 95.9751 139.408 96.2091C138.603 96.3682 137.983 96.9386 137.727 97.6608L137.259 94.2327C137.091 93.0077 135.959 92.1612 134.736 92.3166C133.511 92.4848 132.652 93.6147 132.82 94.8397L133.902 102.749C133.442 102.215 132.743 101.901 131.977 101.983C131.182 102.063 130.527 102.553 130.196 103.219L129.425 96.5053C129.284 95.2767 128.176 94.3808 126.945 94.5362C125.716 94.677 124.833 95.7886 124.976 97.0154L126.537 110.607C126.68 111.836 127.803 112.726 129.017 112.576C129.794 112.489 130.43 112.012 130.761 111.362C131.085 112.216 131.913 112.805 132.853 112.805ZM63.9644 69.0216C64.5239 69.0216 65.0834 68.8131 65.5185 68.3963C66.409 67.5388 66.4364 66.1218 65.5807 65.2296C65.5295 65.1747 60.3239 59.7153 57.7714 53.6305C55.3761 47.9206 57.8171 39.9984 57.8427 39.9179C58.2121 38.7386 57.5575 37.4807 56.38 37.1096C55.2024 36.7384 53.9445 37.3893 53.5715 38.5668C53.449 38.9526 50.6039 48.1181 53.641 55.362C56.5244 62.2366 62.1195 68.0891 62.3553 68.3359C62.7923 68.7912 63.3793 69.0216 63.9644 69.0216ZM28.3792 51.1294C28.4175 51.1294 28.456 51.1294 28.4944 51.1275C29.7304 51.0635 30.6812 50.0122 30.619 48.7763C30.1966 40.4555 40.3354 31.3247 44.2775 28.509C45.285 27.7905 45.5172 26.3918 44.7986 25.3862C44.0818 24.3788 42.6831 24.1448 41.6756 24.8651C41.0155 25.3368 25.514 36.5574 26.1448 49.0048C26.2051 50.2006 27.1961 51.1294 28.3792 51.1294ZM27.0261 29.5091C27.7538 29.5091 28.4669 29.1581 28.8966 28.5072C29.5786 27.4778 29.3043 26.0956 28.2768 25.4118C27.9001 25.1595 25.428 23.695 23.1315 22.3402C26.0186 21.1609 29.2568 19.8628 30.3265 19.5227C35.4242 17.9046 41.2002 20.3381 41.2587 20.3619C42.3942 20.8483 43.7107 20.3253 44.2007 19.1936C44.6907 18.06 44.1733 16.7454 43.0396 16.2518C42.7434 16.122 35.6911 13.1162 28.9716 15.2535C26.7573 15.9574 17.6425 19.7567 17.2549 19.9195C16.4723 20.2467 15.9402 20.9872 15.8836 21.8337C15.8251 22.6803 16.2529 23.4866 16.9843 23.9162C20.1365 25.7665 25.3165 28.8217 25.7956 29.138C26.174 29.3903 26.6019 29.5091 27.0261 29.5091Z" fill="white"/>
</g>
</g>
<defs>
<clipPath id="clip0_71_7">
<rect width="997.04" height="119.913" fill="white" transform="translate(0.874023)"/>
</clipPath>
<clipPath id="clip1_71_7">
<rect width="828.251" height="86.7674" fill="white" transform="translate(169.663 16.5726)"/>
</clipPath>
<clipPath id="clip2_71_7">
<rect width="828.251" height="86.7674" fill="white" transform="translate(169.663 16.5726)"/>
</clipPath>
<clipPath id="clip3_71_7">
<rect width="828.251" height="86.7674" fill="white" transform="translate(169.663 16.5726)"/>
</clipPath>
<clipPath id="clip4_71_7">
<rect width="828.251" height="86.7674" fill="white" transform="translate(169.663 16.5726)"/>
</clipPath>
<clipPath id="clip5_71_7">
<rect width="148.31" height="119.91" fill="white" transform="matrix(-1 0 0 1 149.31 0)"/>
</clipPath>
<clipPath id="clip6_71_7">
<rect width="148.31" height="119.91" fill="white" transform="matrix(-1 0 0 1 149.31 0)"/>
</clipPath>
</defs>
</svg>
